<?xml version="1.0" encoding="iso-8859-1"?>
<!-- Generator: Adobe Illustrator 19.1.0, SVG Export Plug-In . SVG Version: 6.00 Build 0)  -->
<svg version="1.1" id="Layer_3" xmlns="http://www.w3.org/2000/svg" xmlns:xlink="http://www.w3.org/1999/xlink" x="0px" y="0px"
	 viewBox="0 0 561.648 200.667" style="enable-background:new 0 0 561.648 200.667;" xml:space="preserve">
<symbol  id="FrontLeg" viewBox="-55.354 -8.437 44.061 12.588">
	<path style="stroke:#000000;stroke-miterlimit:10;" d="M-53.652,0.716c2.795,1.152,5.625,2.313,8.616,2.757
		c2.991,0.444,6.206,0.104,8.73-1.56c1.848-1.219,3.335-3.129,5.488-3.644c1.679-0.402,3.424,0.137,5.066,0.671
		c1.907,0.62,3.814,1.239,5.72,1.859c2.088,0.678,4.488,1.328,6.371,0.199c1.343-0.805,2.097-2.487,1.805-4.025
		c-0.32-1.687-1.754-2.989-3.347-3.628s-3.346-0.727-5.061-0.808c-3.058-0.144-6.115-0.288-9.173-0.432
		c-2.669-0.126-5.737-0.09-7.478,1.937c-0.837,0.974-1.249,2.309-2.266,3.092c-0.848,0.653-1.97,0.806-3.038,0.875
		c-3.332,0.216-6.702-0.17-9.899-1.132c-0.524-0.158-1.078-0.332-1.607-0.193c-1.015,0.268-1.402,1.651-0.925,2.587
		c0.476,0.936,1.526,1.446,2.556,1.65"/>
</symbol>
<g>
	<defs>
		<path id="SVGID_1_" d="M423.516,97.169c0,34.335-23.625,62.169-59.64,62.169s-70.783-27.834-70.783-62.169S327.861,35,363.876,35
			S423.516,62.834,423.516,97.169z"/>
	</defs>
	<use xlink:href="#SVGID_1_"  style="overflow:visible;"/>
	<clipPath id="SVGID_2_">
		<use xlink:href="#SVGID_1_"  style="overflow:visible;"/>
	</clipPath>
	<g style="opacity:0.16;clip-path:url(#SVGID_2_);">
		<path d="M427.37,53.51c-1.005-0.552-2.022-1.074-3.04-1.592c-16.192-14.518-41.753-19.194-63.714-17.717
			c-19.731,1.327-38.422,8.462-51.923,21.335c-5.881,3.918-10.599,9.184-13.596,15.327c-0.616,1.262-0.527,2.735,0.024,4.013
			c0.045,3.522,4.808,6.474,8.423,3.313c5.429-4.747,11.329-8.851,17.705-12.363c2.152-1.131,4.323-2.233,6.514-3.306
			c9.767-4.126,20.338-6.959,30.292-9.167c10.706-2.375,21.972-3.603,32.909-1.836c9.66,1.561,18.93,5.259,28.049,8.672
			c0.449,0.289,0.906,0.565,1.349,0.861c1.076,0.721,2.16,0.934,3.153,0.794l0.001,0C428.917,63.779,432.073,56.096,427.37,53.51z"
			/>
	</g>
	<g style="opacity:0.16;clip-path:url(#SVGID_2_);">
		<path d="M423.37,142.042c-1.005,0.552-2.022,1.074-3.04,1.592c-16.192,14.518-41.753,19.194-63.714,17.717
			c-19.731-1.327-38.422-8.462-51.923-21.335c-5.881-3.918-10.599-9.184-13.596-15.327c-0.616-1.262-0.527-2.735,0.024-4.013
			c0.045-3.522,4.808-6.474,8.423-3.313c5.429,4.747,11.329,8.851,17.705,12.363c2.152,1.131,4.323,2.233,6.514,3.306
			c9.767,4.126,20.338,6.959,30.292,9.167c10.706,2.375,21.972,3.603,32.909,1.836c9.66-1.561,18.93-5.259,28.049-8.672
			c0.449-0.289,0.906-0.565,1.349-0.861c1.076-0.721,2.16-0.934,3.153-0.794l0.001,0
			C424.917,131.773,428.073,139.456,423.37,142.042z"/>
	</g>
	<path style="clip-path:url(#SVGID_2_);fill:none;stroke:#4D4D4D;stroke-miterlimit:10;" d="M322.446,40.525
		c4.856,1.601,4.003,8.992,7.275,12.921c3.17,3.807,9.205,3.311,13.42,5.914c9.653,5.959,5.144,24.012,15.249,29.168
		c-4.417,2.713-7.523,7.465-8.236,12.599c-0.314,2.258-0.188,4.568-0.625,6.806c-1.656,8.48-11.077,15.108-9.406,23.585
		c0.221,1.123,0.643,2.231,0.566,3.373c-0.154,2.288-2.174,3.915-3.591,5.719c-2.905,3.699-3.445,8.653-4.852,13.141
		c-1.407,4.488-4.557,9.198-9.251,9.48"/>
	<path style="clip-path:url(#SVGID_2_);fill:none;stroke:#4D4D4D;stroke-miterlimit:10;" d="M374.825,30.533
		c-0.971,9.445,4.859,19.191,13.64,22.803c-0.838,4.037-4.322,6.99-5.866,10.814c-1.66,4.113-0.888,8.887,1.053,12.875
		c1.94,3.988,4.942,7.345,7.906,10.645c-2.087,2.384-3.106,5.67-2.734,8.817c0.209,1.767,0.83,3.468,1.013,5.238
		c0.231,2.229-0.242,4.467-0.79,6.64c-1.908,7.57-4.766,14.9-8.484,21.764c-0.786,1.45-1.624,2.919-1.887,4.548
		c-0.367,2.273,0.427,4.575,0.372,6.876c-0.134,5.638-5.053,9.771-9.04,13.758c-6.04,6.04-10.738,13.416-13.658,21.444"/>
	<path style="clip-path:url(#SVGID_2_);" d="M336.458,84.06c0.976-1.393,1.324-3.243,0.395-5.174
		c-2.789-5.795-6.579-10.788-13.058-12.584c-6.239-1.729-12.894-0.432-19.04,1.035c-6.257,1.493-3.608,11.138,2.658,9.643
		c0.131-0.031,0.266-0.064,0.398-0.095c0.518,1.111,1.437,2.07,2.837,2.619c4.321,1.694,8.981-0.626,12.872,2.415
		c4.27,3.337,4.622,9.14,3.537,14.046c-1.388,6.271,8.251,8.949,9.643,2.658C337.777,93.756,337.878,88.688,336.458,84.06z"/>
	<path style="opacity:0.29;clip-path:url(#SVGID_2_);fill:#FFFFFF;" d="M350.01,71.621c-3.803-1.593-7.704-2.794-11.663-3.624
		c-0.99-0.585-2.012-1.117-3.06-1.59c-10.467-4.729-22.177-3.644-32.652,0.474c-2.766,1.087-3.891,3.939-3.345,6.292
		c-0.106,1.025,0.08,2.046,0.547,2.922c-0.423,0.352-0.786,0.782-1.039,1.312c-4.934,10.351-6.136,21.537-3.199,32.657
		c0.595,2.254,2.244,3.339,4.024,3.516c0.23,0.213,0.48,0.386,0.742,0.535c0.219,0.497,0.536,0.959,0.955,1.372
		c-0.439,0.222-0.876,0.45-1.301,0.705c-4.449,2.667-2.29,8.969,2.524,9.317c14.339,1.038,28.453-2.356,41.906-7.063
		c11.047-3.866,23.419-10.205,24.629-23.329C370.173,83.252,359.749,75.701,350.01,71.621z"/>
	<use xlink:href="#SVGID_1_"  style="overflow:visible;fill:none;stroke:#000000;stroke-width:5.2728;stroke-miterlimit:10;"/>
</g>
<g>
	<defs>
		<path id="XMLID_55_" d="M305.069,51.997C243.515,3.012,160.31-9.95,104.685,20.769c-23.924,13.212-43.197,31.954-54.28,49.615
			c-10.309,16.428-11.514,36.627-3.793,54.295c6.841,15.655,18.921,32.008,36.129,45.986c47.41,38.51,143.258,32.684,222.328-29.146
			C323.548,123.302,326.435,72.816,305.069,51.997z"/>
	</defs>
	<use xlink:href="#XMLID_55_"  style="overflow:visible;"/>
	<clipPath id="XMLID_9_">
		<use xlink:href="#XMLID_55_"  style="overflow:visible;"/>
	</clipPath>
	<path style="clip-path:url(#XMLID_9_);fill:#C41D00;" d="M135.277,126.767c-2.927-0.581-5.863-1.023-8.809-1.332
		c-0.767-0.572-1.792-0.88-3.085-0.749c-1.323,0.134-2.639,0.221-3.956,0.278c-1.208-0.032-2.419-0.031-3.632-0.013
		c1.878-3.654,2.892-8.252,1.039-11.183c-0.391-4.173-2.637-7.931-4.671-11.595c-2.554-4.599-5.384-9.026-8.406-13.331
		c-2.141-3.05-8.483-3.496-9.139,1.194c-0.385,2.75-0.698,5.499-0.96,8.248c-0.409-0.132-0.819-0.262-1.228-0.401
		c-4.547-1.55-8.792,5.225-4.865,8.357c1.761,1.404,3.547,2.758,5.36,4.064c-0.153,5.805-0.022,11.62,0.448,17.461
		c0.262,3.257,2.981,5.658,6.329,4.821c2.224-0.556,4.119-1.557,5.827-2.912c1.003,0.911,2.306,1.345,3.634,1.255
		c0.361,2.091,1.941,3.956,4.745,4.06c1.844,0.068,3.673,0.055,5.501-0.024c4.43,0.116,8.821,0.574,13.209,1.446
		C138.903,137.658,141.593,128.021,135.277,126.767z"/>
	<path style="clip-path:url(#XMLID_9_);fill:#C41D00;" d="M197.388,106.528c-1.261-3.202-3.642-5.738-3.678-9.309
		c-0.03-3.061,1.23-6.172,1.752-9.169c1.011-5.814,0.301-11.352-3.713-15.913c-4.104-4.663-10.15-7.692-15.318-10.994
		c-2.69-1.719-5.375-3.746-8.6-4.254c-3.129-0.492-5.717,0.66-8.571,1.776c-6.698,2.62-13.623,4.615-20.711,5.85
		c-5.077,0.885-16.424,3.718-20.64-0.476c-0.441-0.439-0.905-0.767-1.38-1.001c-1.143-2.866-2.287-5.733-3.43-8.599
		c-0.481-1.207-1.271-2.054-2.198-2.596c-0.888-2.281-3.099-3.998-5.813-3.011c-5.691,2.068-11.546,4.306-17.602,5.006
		c-6.908,0.799-13.468-1.598-20.322-1.581c-10.282,0.025-18.812,6.06-24.199,14.541c-6.089,9.587-9.36,22.714-10.461,33.915
		c-0.964,9.802,1.661,20.477,9.993,26.513c9.055,6.56,21.279,3.383,30.844,9.086c9.244,5.512,11.737,17.144,20.895,22.422
		c6.459,3.722,17.064,2.1,19.823-5.596c1.297-3.618,0.167-7.057-0.768-10.555c0.206,0.052,0.41,0.108,0.621,0.151
		c6.698,1.368,13.167-2.738,19.457-4.379c14.161-3.696,29.411-2.305,42.689,3.838c2.698,1.248,6.662,0.446,7.345-2.988
		c1.382-6.953,4.359-13.161,9.382-18.231C196.945,116.772,199.773,112.584,197.388,106.528z M53.075,82.475
		c0.018-0.138,0.036-0.275,0.056-0.408c0.487-0.522,1.057-0.902,1.717-1.094C54.233,81.449,53.645,81.953,53.075,82.475z
		 M110.733,95.966c0.266,0.884,0.351,1.799,0.102,2.751c-0.003,0.01-0.008,0.02-0.011,0.03
		C110.808,97.819,110.779,96.892,110.733,95.966z M119.67,131.474c0.335,0.086,0.676,0.141,1.02,0.162
		c0.151,0.105,0.31,0.196,0.474,0.278c-1.287,0.36-2.524,0.648-3.589,0.801C118.341,132.497,119.062,132.091,119.67,131.474z
		 M175.947,128.998c-0.266,0.693-0.514,1.393-0.746,2.1c-0.402-0.149-0.806-0.29-1.209-0.433
		C174.683,130.178,175.334,129.618,175.947,128.998z M187.852,111.748c-0.069-0.302-0.161-0.597-0.276-0.881
		c0.16-0.178,0.305-0.374,0.441-0.578C188.132,110.973,188.07,111.392,187.852,111.748z"/>
	<linearGradient id="SVGID_3_" gradientUnits="userSpaceOnUse" x1="46.581" y1="101.1552" x2="161.0132" y2="101.1552">
		<stop  offset="0" style="stop-color:#FFFFFF;stop-opacity:0.5"/>
		<stop  offset="1" style="stop-color:#000000;stop-opacity:0"/>
	</linearGradient>
	<path style="clip-path:url(#XMLID_9_);fill:url(#SVGID_3_);" d="M287.217,142.403c0.146-0.092,0.28-0.176,0.404-0.254
		c-0.123,0.077-0.25,0.157-0.406,0.255c-29.361,18.446-67.195,36.509-105.439,42.557c-1.418,3.153-5.829,3.283-7.934,1.078
		c-22.433,2.539-44.816,0.674-65.524-7.951c-48.558-20.226-71.662-67.192-44.495-112.023c23.17-38.234,71.866-53.401,117.51-50.683
		c86.775,5.168,21.057-17.392-23.659-14.15C64.79,7.967-3.727,90.818,51.876,163.381c29.772,38.854,77.05,40.817,125.866,36.3
		c26.64-2.465,57.226-11.299,81.65-23.968c2.316-1.201,33.077-21.058,33.654-24.321C293.48,148.934,297.072,136.213,287.217,142.403
		z M282.199,145.556C282.075,145.633,282.078,145.631,282.199,145.556L282.199,145.556z M286.844,142.637
		c-0.505,0.317-0.96,0.603-1.373,0.863C285.952,143.198,286.422,142.903,286.844,142.637z M284.893,143.863
		c-0.159,0.1-0.295,0.185-0.438,0.275C284.599,144.048,284.745,143.956,284.893,143.863z M282.9,145.115
		c-0.045,0.029-0.077,0.049-0.119,0.074C282.821,145.165,282.858,145.142,282.9,145.115z"/>
	
		<ellipse transform="matrix(0.9913 0.1315 -0.1315 0.9913 4.4919 -23.2885)" style="opacity:0.44;clip-path:url(#XMLID_9_);fill:#FFFFFF;" cx="178.582" cy="22.367" rx="18.561" ry="8.907"/>
	<path style="clip-path:url(#XMLID_9_);fill:none;stroke:#999999;stroke-miterlimit:10;" d="M89.964,22.017
		c-0.231,15.049,20.926,21.918,24.563,36.522c0.991,3.98,0.554,8.207,1.511,12.196c2.027,8.448,9.772,14.23,13.679,21.99
		c0.502,0.998,0.949,2.071,0.917,3.188c-0.053,1.817-1.337,3.337-2.591,4.653c-8.134,8.535-18.801,17.316-18.068,29.083
		c0.286,4.592,2.374,8.853,3.543,13.302c1.169,4.449,1.221,9.716-1.935,13.064c-2.43,2.578-6.314,3.509-8.477,6.315
		c-1.448,1.878-1.9,4.311-2.759,6.521c-2.479,6.373-8.862,11.036-15.687,11.46"/>
	<path style="clip-path:url(#XMLID_9_);fill:none;stroke:#999999;stroke-miterlimit:10;" d="M141.275,1.889
		c2.964,11.398,9.732,21.772,18.97,29.076c3.877,3.065,8.526,6.134,9.393,10.999c0.474,2.659-0.319,5.389-0.118,8.083
		c0.537,7.205,7.592,11.86,13.797,15.561s13.065,8.921,12.798,16.141c-0.204,5.516-4.732,10.615-3.446,15.984
		c0.73,3.047,3.223,5.404,4.14,8.4c1.67,5.462-2.255,10.945-6.157,15.117c-3.728,3.986-7.865,8.143-8.763,13.526
		c-0.524,3.141,0.138,6.359-0.059,9.538c-0.476,7.675-5.786,14.119-8.184,21.425c-2.76,8.406-1.789,18.265-7.113,25.332
		c-5.364,7.12-15.759,9.351-20.382,16.974"/>
	<path style="clip-path:url(#XMLID_9_);fill:#C41D00;" d="M179.451,128.054c-0.168-0.398-0.336-0.796-0.504-1.194
		c-0.445-0.751-1.042-1.349-1.794-1.794c-0.889-0.666-1.778-1.333-2.668-1.999c-0.97-0.727-2.741-0.81-3.853-0.504
		c-1.16,0.319-2.417,1.216-2.988,2.298c-0.613,1.16-0.92,2.566-0.504,3.853c0.168,0.398,0.336,0.796,0.504,1.194
		c0.445,0.751,1.042,1.349,1.794,1.794c0.889,0.666,1.778,1.333,2.668,1.999c0.97,0.727,2.741,0.81,3.853,0.504
		c1.16-0.319,2.417-1.216,2.988-2.298C179.56,130.746,179.867,129.341,179.451,128.054z"/>
	
		<ellipse transform="matrix(0.9998 -0.0217 0.0217 0.9998 -2.0989 4.604)" style="opacity:0.31;clip-path:url(#XMLID_9_);fill:#FFFFFF;" cx="211.416" cy="99.161" rx="111.224" ry="55.781"/>
	<use xlink:href="#XMLID_55_"  style="overflow:visible;fill:none;stroke:#000000;stroke-width:5;stroke-miterlimit:10;"/>
</g>
<path style="fill:none;stroke:#1A1517;stroke-miterlimit:10;" d="M332.054,148.965"/>
<g>
	<defs>
		<path id="XMLID_2_" d="M395.5-72.807c24.664-36.702,49.331-66.902,74-88.798c4.585-17.669,10.949-33.299,18.482-47.586
			c-1.842-13.436-1.242-27.186,1.518-41.212c-3.207-34.765-3.978-68.077,1.5-99.693c0.958-6.95,3.563-6.28,7.5,0.545
			c8.895,31.151,10.608,64.658,6,100.238c3.212,12.806,2.587,26.641-1.5,41.403c-3.39,22.548-9.067,43.379-19,61.015
			c-14.707,28.624-33.625,54.32-59.5,75.179C408.833-59.732,399.167-60.095,395.5-72.807z"/>
	</defs>
	<use xlink:href="#XMLID_2_"  style="overflow:visible;"/>
	<clipPath id="XMLID_10_">
		<use xlink:href="#XMLID_2_"  style="overflow:visible;"/>
	</clipPath>
	<path style="opacity:0.42;clip-path:url(#XMLID_10_);fill:#FFFFFF;" d="M518.123-247.414c-2.139-1.612-4.278-3.224-6.417-4.836
		c-2.037-1.535-2.992-1.726-3.23-4.282c-0.437-4.695,1.179-10.522,1.536-15.272c0.733-9.739,0.996-19.519,0.781-29.289
		c-0.402-18.229-1.315-38.076-7.963-55.066c0-0.002-0.001-0.004-0.001-0.006c0,0-0.001,0-0.001,0.001
		c-0.169-0.433-0.326-0.873-0.503-1.302c-1.177-2.854-3.482-3.322-5.492-2.432c-2.1-1.073-4.751-0.741-6.219,2.105
		c-10.411,20.188-12.999,42.386-12.137,64.76c-0.161,3.34-0.251,6.684-0.265,10.028c-0.035,8.577-1.053,20.915,3.186,29.117
		c2.108,17.017,1.421,33.619-3.758,50.377c-2.905,9.399-6.253,18.933-10.229,27.857c-3.602,8.083-8.643,14.179-14.592,20.264
		c-24.216,24.768-49.124,49.413-66.025,80.995c-1.788,3.34-0.112,6.386,2.357,7.529c-2.902,3.155-0.146,10.193,5.088,9.174
		c3.346-0.716,6.692-1.432,10.038-2.148c0.06,0.01,0.114,0.033,0.175,0.041c5.445,0.729,10.557-0.611,15.262-3.638
		c0.739-0.476,1.276-1.056,1.671-1.686c19.671-8.283,36.933-22.743,49.738-41.138c7.013-10.075,12.593-21.396,16.325-33.385
		c3.398-0.376,6.401-4.041,3.869-7.821c-0.415-0.62-0.83-1.239-1.246-1.859c0.573-1.96,1.346-3.8,2.803-5.342
		c2.58-2.729,5.087-5.21,7.122-8.482c3.658-5.883,5.624-12.955,6.805-19.877c3.092-18.138,4.214-36.863,5.858-55.285
		c0.138,0.102,0.28,0.202,0.417,0.305C518.381-234.008,523.387-243.448,518.123-247.414z M503.294-245.115
		c-1.729,17.513-3.236,35.072-5.212,52.554c-0.784,6.937-1.884,14.291-4.89,20.551c-2.633,5.483-7.651,8.769-10.544,13.864
		c-2.491-0.785-5.332,0.253-6.093,3.59c-9.678,42.437-41.999,76.162-81.023,85.499c10.768-17.376,23.799-32.805,38.669-46.105
		c2.239-2.003,2.028-4.655,0.672-6.566c10.261-10.788,21.123-20.944,30.908-32.207c5.784-6.658,9.641-14.275,12.898-22.663
		c3.545-9.129,7.066-18.356,9.738-27.84c4.334-15.381,4.931-30.894,3.367-46.474c0.694-1.183,1.029-2.677,0.775-4.292
		c-1.874-11.892-3.539-24.172-4.129-36.429c0.124-2.936,0.285-5.871,0.523-8.799c0.625-7.702,1.684-15.343,3.141-22.91
		c0.709-3.684,1.508-7.348,2.401-10.984c0.149-0.605,0.298-1.383,0.458-2.234c0.441,1.531,0.837,2.838,0.912,3.132
		c0.851,3.354,1.505,6.745,2.048,10.173c0.25,1.58,0.951,2.639,1.866,3.259c0.003,0.032,0.006,0.064,0.008,0.096
		c0.886,10.425,1.226,20.905,1.02,31.372c-0.207,10.526-1.342,20.839-2.256,31.295c-0.471,5.395,1.663,8.993,4.769,11.937
		C503.313-245.237,503.3-245.178,503.294-245.115z"/>
	<use xlink:href="#XMLID_2_"  style="overflow:visible;fill:none;stroke:#000000;stroke-width:3;stroke-miterlimit:10;"/>
</g>
<g>
	<defs>
		<path id="XMLID_4_" d="M178.5-94.525c10.793-28.185,14.044-57.853,11.5-88.659c-0.64-39.485-6.401-74.658-16.5-106.179
			c-4.929-35.701-14.855-57.208-25.551-76.527c-3.81-4.49-6.504-4.281-7.916,1.334c4.561,28.895,10.482,56.362,20.592,79.43
			c0.404,31.552,5.398,65.853,13.375,101.942c-10.508,23.838-17.379,52.287-18,88.659C159.668-82.67,167.053-82.313,178.5-94.525z"
			/>
	</defs>
	<use xlink:href="#XMLID_4_"  style="overflow:visible;"/>
	<clipPath id="XMLID_11_">
		<use xlink:href="#XMLID_4_"  style="overflow:visible;"/>
	</clipPath>
	<path style="opacity:0.45;clip-path:url(#XMLID_11_);fill:#FFFFFF;" d="M186.076-174.43c-2.763,31.15-5.799,63.302-20.218,91.209
		c-3.097,5.994,5.535,11.358,8.635,5.359c15.31-29.633,18.649-63.485,21.583-96.569C196.679-181.23,186.675-181.186,186.076-174.43z
		"/>
	<path style="opacity:0.45;clip-path:url(#XMLID_11_);fill:#FFFFFF;" d="M194.939-194.218c-3.242,2.552-4.504-16.284-4.76-18.666
		c-0.856-7.973-1.712-15.945-2.568-23.918c-1.75-16.292-3.499-32.584-5.248-48.876c-0.168-1.564-0.844-2.763-1.767-3.603
		c0.184-0.757,0.229-1.571,0.045-2.428c-2.543-11.875-5.952-23.451-10.176-34.772c-4.154-11.134-8.685-22.3-7.337-34.53
		c0.7-6.353-8.056-6.697-9.759-1.176c-2.558-4.203-6.127-8.73-10.384-9.829c-15.543-4.015-5.095,26.892-3.73,32.855
		c1.924,8.402,3.92,16.784,5.99,25.147c1.87,7.555,6.34,17.548,3.464,25.219c-1.53,4.079,1.915,6.671,5.198,6.339
		c-0.031,0.316-0.043,0.647-0.021,1c1.104,17.656,1.764,35.338,1.924,53.032c0.139,15.409-0.351,30.937,6.178,45.128
		c0.497,1.079,1.174,1.796,1.936,2.222c0.21,0.851,0.594,1.68,1.13,2.393c-0.309,0.658-0.617,1.316-0.914,1.979
		c-0.523,1.159-1.033,2.325-1.53,3.497c-1.296,3.054-2.518,6.147-3.663,9.268c-2.307,6.288-4.255,12.722-5.839,19.257
		c-3.129,12.909-4.784,26.206-5.13,39.524c-0.178,6.835,9.822,6.83,10,0c0.432-16.607,3.126-32.964,8.133-48.712
		c2.447-7.695,6.314-14.76,8.856-22.347c1.609-4.802-0.03-9.068-3.8-10.318c-0.041-0.686-0.21-1.399-0.543-2.123
		c-6.188-13.448-4.666-29.41-4.86-43.932c-0.217-16.305-0.86-32.599-1.878-48.869c-0.213-3.398-2.83-5.106-5.335-5.105
		c2.041-6.021,0.873-12.194-0.632-18.248c-1.746-7.023-3.544-14.029-5.238-21.066c-1.695-7.036-3.338-14.087-4.929-21.151
		c-0.548-2.435-1.081-4.875-1.617-7.313c0.104,0.169,0.214,0.337,0.304,0.507c1.386,2.614,2.492,5.363,3.469,8.174
		c2.049,5.896,3.758,11.922,5.754,17.84c4.615,13.683,9.935,27.091,15.841,40.201c0.231,0.513,0.517,0.919,0.825,1.277
		c0.001,0.214,0.011,0.435,0.036,0.664c2.345,21.838,4.69,43.676,7.035,65.514c0.558,5.2,1.117,10.399,1.675,15.599
		c0.478,4.45,0.605,9.233,2.364,13.373c2.768,6.513,10.506,10.899,16.55,6.142C205.099-189.075,200.118-198.295,194.939-194.218z"/>
	<use xlink:href="#XMLID_4_"  style="overflow:visible;fill:none;stroke:#000000;stroke-width:3;stroke-miterlimit:10;"/>
</g>
<g>
	<defs>
		<path id="XMLID_5_" d="M-76.5-71.5c-16.631-34.845-40.392-64.398-71.5-88.5c-21.21-12.913-43.777-22.802-68-29
			c-17.014-12.292-36.584-21.09-59-26c-45.908-22.844-89.404-42.42-127-54c-4.056-0.558-4.637,1.158-3.5,4
			c33.02,22.405,75.307,43.78,123.5,64.5c19.163,12.902,39.155,22.597,60,29c19.467,14.503,40.515,24.817,63.5,30
			c15.23,26.073,32.546,49.628,52.5,70C-95.343-61.638-85.598-62.695-76.5-71.5z"/>
	</defs>
	<use xlink:href="#XMLID_5_"  style="overflow:visible;"/>
	<clipPath id="XMLID_12_">
		<use xlink:href="#XMLID_5_"  style="overflow:visible;"/>
	</clipPath>
	<path style="opacity:0.45;clip-path:url(#XMLID_12_);fill:#FFFFFF;" d="M-67.719-61.127c-5.871-19.482-17.655-36.006-30.49-51.512
		c-14.628-17.671-29.814-34.901-44.745-52.315c-4.196-4.893-11.241,2.208-7.071,7.071c14.192,16.551,28.532,32.988,42.551,49.685
		c12.527,14.92,24.421,30.844,30.112,49.729C-75.51-52.323-65.855-54.941-67.719-61.127z"/>
	<path style="opacity:0.45;clip-path:url(#XMLID_12_);fill:#FFFFFF;" d="M-160.617-150.195
		c-14.298-2.143-27.962-6.561-40.715-13.385c-0.953-0.51-1.887-0.685-2.757-0.618c-8.005-13.849-25.23-19.593-39.572-25.341
		l-70.417-28.223c-0.242-0.097-0.476-0.167-0.706-0.226c-0.411-0.245-0.871-0.445-1.405-0.562c-3.25-0.715-6.481-1.135-9.704-1.272
		c-0.349-0.148-0.693-0.303-1.042-0.45c-1.496-0.63-2.785-0.458-3.784,0.18c-10.03-10.872-22.222-19.278-36.186-24.872
		c-7.908-3.168-16.21-5.553-23.56-9.96c-3.764-2.257-6.772-5.021-9.446-8.491c-0.243-0.316-0.5-0.626-0.762-0.931
		c1.61,0.367,3.209,0.815,4.776,1.207c13.771,3.445,27.18,8.174,40.07,14.116c5.805,2.676,10.891-5.94,5.047-8.635
		c-9.715-4.479-19.669-8.413-29.886-11.596c-8.623-2.686-19.102-6.875-28.281-5.563c-8.193,1.17-12.881,8.594-9.384,16.416
		c3.572,7.989,12.203,13.338,20.652,14.528c1.73,0.244,3.287-0.25,4.423-1.156c0.283,0.152,0.559,0.316,0.845,0.463
		c6.664,3.439,13.834,5.762,20.813,8.451c10.886,4.194,20.823,10.369,29.23,18.28c-4.665,2.4-1.974,10.629,3.844,9.201
		c1.326-0.326,2.648-0.573,3.969-0.776c0.941,1.16,1.864,2.337,2.747,3.551c2.891,3.976,8.71,1.918,9.483-1.624
		c19.365,8.547,38.089,18.264,57.268,27.229c4.716,2.205,9.568,4.232,14.626,5.508c5.349,1.349,10.921,1.811,16.168,3.57
		c9.868,3.31,17.458,11.11,24.646,18.285c2.072,2.068,5.214,1.633,7.067-0.088c12.39,6.145,25.56,10.374,39.277,12.429
		C-156.98-139.609-154.265-149.243-160.617-150.195z"/>
	<path style="opacity:0.45;clip-path:url(#XMLID_12_);fill:#FFFFFF;" d="M-174.888-188.506c-5.689-2.877-11.585-4.797-17.929-5.548
		c-5.024-0.595-9.889-0.018-14.833,0.327c-2.858-1.545-5.558-3.403-8.034-5.562c-2.754-2.401-6.241-1.143-7.835,1.166
		c-1.324-1.092-2.672-2.295-4.199-3.528c-4.468-3.609-9.378-6.499-14.629-8.812c-10.582-4.662-21.826-7.307-32.771-10.926
		c-12.39-4.097-23.784-10.3-33.714-18.797c-4.865-4.163-11.971,2.879-7.071,7.071c9.658,8.264,20.417,14.771,32.3,19.309
		c11.343,4.333,23.338,6.741,34.598,11.305c5.476,2.22,10.857,5.071,15.391,8.892c4.755,4.008,8.529,8.288,14.913,9.534
		c3.011,0.588,6.002,0.58,8.994,0.393c10.343,4.863,21.97,6.404,33.626,4.316C-171.891-180.118-171.193-186.637-174.888-188.506z"/>
	<use xlink:href="#XMLID_5_"  style="overflow:visible;fill:none;stroke:#000000;stroke-width:3;stroke-miterlimit:10;"/>
</g>
<ellipse style="fill:#C41D00;" cx="406.25" cy="87.833" rx="5.083" ry="6.667"/>
<ellipse style="fill:#C41D00;" cx="405.917" cy="103.667" rx="5.083" ry="6.667"/>
<ellipse style="fill:#C41D00;" cx="400.5" cy="73.667" rx="2.415" ry="3.167"/>
<ellipse style="fill:#C41D00;" cx="399.5" cy="118.5" rx="2.415" ry="3.167"/>
<g>
	<defs>
		<path id="XMLID_1_" d="M779-85.404c25.535-18.678,59.258-33.486,95.106-47.29c21.398-9.458,44.029-14.389,67.463-16.374
			c15.407-15.677,32.418-29.509,51.881-40.52c17.465-16.32,37.257-30.269,57.974-43.276c2.886-1.001,5.115-0.846,5.13,3.206
			c-14.313,17.381-31.43,35.252-53.356,53.962c-14.371,15.178-33.096,28.535-54.895,40.605l-72.852,19.768
			c-24.657,16.996-48.434,31.555-70.799,42.208C786.332-68.294,778.875-73.388,779-85.404z"/>
	</defs>
	<use xlink:href="#XMLID_1_"  style="overflow:visible;"/>
	<clipPath id="XMLID_13_">
		<use xlink:href="#XMLID_1_"  style="overflow:visible;"/>
	</clipPath>
	<path style="opacity:0.44;clip-path:url(#XMLID_13_);fill:#FFFFFF;" d="M1060.077-235.938c-0.548,0.12-1.091,0.267-1.638,0.394
		c-1.715-0.899-3.837-0.82-5.575,1.072c-0.139,0.152-0.278,0.304-0.417,0.456c-12.448,3.459-24.466,8.603-35.592,15.382
		c-6.638,4.044-12.934,8.674-18.885,13.746c-5.815,4.956-10.622,11.132-16.449,16c-5.944,4.965-14.389,5.593-20.956,9.64
		c-6.636,4.089-11.225,9.797-15.961,15.986c-8.788,11.485-20.846,12.961-34.135,14.027c-13.606,1.092-27.979,2.315-38.088,13.013
		c-1.252,1.325-1.631,2.843-1.435,4.257c-0.482-0.239-1.029-0.403-1.64-0.471c-0.013-3.289-2.393-6.457-6.187-5.014
		c-4.197,1.596-8.365,3.262-12.51,5.001c-2.149,0.902-3.196,2.789-3.384,4.732c-5.426,2.858-11.068,5.263-16.937,7.147
		c-2.824,0.906-5.674,1.745-8.48,2.713c-4.017,0.646-8.051,1.116-12.119,1.657c-5.713,0.759-11.138,2.337-15.079,6.974
		c-1.883,2.215-1.992,5.34,0,7.556c0.68,0.757,1.421,1.389,2.204,1.914c-1.794,0.783-3.583,1.577-5.357,2.411
		c-7.461,3.504-14.94,7.37-19.156,15.034c-3.288,5.977,5.574,11.365,8.86,5.393c3.982-7.239,13.473-10.439,20.528-13.472
		c7.924-3.406,16.024-6.345,24.079-9.389c15.855-5.992,31.689-12.424,45.468-22.753c1.754-1.315,2.496-3.439,2.307-5.389
		c1.789,1.18,4.165,1.295,6.093-0.745c8.52-9.017,21.545-9.108,32.885-10.049c11.711-0.972,24.076-2.417,33.455-10.524
		c5.561-4.806,8.964-11.644,14.327-16.659c5.934-5.549,12.969-7.131,20.138-10.142c6.91-2.901,11.413-8.529,16.653-13.776
		c5.52-5.527,11.479-10.542,17.846-14.972c7.028-4.89,14.439-9.036,22.147-12.446c-10.666,11.68-21.335,23.359-32.161,34.871
		c-6.961,7.402-14.206,14.68-22.612,20.298c-4.065,2.716-8.359,5.085-12.926,6.744c-4.816,1.749-9.878,2.863-14.288,5.643
		c-4.148,2.615-7.447,6.4-11.419,9.262c-3.886,2.8-8.164,4.965-12.614,6.6c-9.005,3.309-18.484,4.901-27.827,6.793
		c-9.022,1.827-17.901,4.006-26.373,7.79c-8.213,3.669-15.839,8.51-23.301,13.599c-16.475,11.234-33.39,25.06-53.925,25.711
		c-2.952,0.094-4.582,2.291-4.892,4.669c-6.286,1.491-12.607,2.813-18.83,4.244c-6.445,1.482-3.718,11.786,2.728,10.304
		c16.273-3.742,32.851-6.939,48.227-13.852c15.981-7.185,30.373-18.476,44.94-28.272c1.254-0.844,1.955-1.973,2.231-3.17
		c8.129-4.446,16.637-7.354,25.619-9.382c14.289-3.228,29.087-5.156,42.126-11.732c0.012,0.02,0.017,0.044,0.03,0.064
		c1.586,2.562,4.446,3.257,7.019,1.917c1.368-0.712,2.736-1.425,4.104-2.137c2.406-1.253,3.274-4.994,1.841-7.31
		c-0.192-0.311-0.405-0.592-0.632-0.847c3.825-3.237,7.234-6.035,12.129-7.682c5.042-1.697,9.98-3.35,14.725-5.852
		c9.118-4.807,17.159-11.703,24.536-18.999c18.174-17.977,35.037-37.567,52.326-56.486c1.637-0.422,3.281-0.824,4.936-1.186
		C1069.263-227.047,1066.53-237.35,1060.077-235.938z"/>
	<use xlink:href="#XMLID_1_"  style="overflow:visible;fill:none;stroke:#000000;stroke-width:3;stroke-miterlimit:10;"/>
</g>
<use xlink:href="#FrontLeg"  width="44.061" height="12.588" id="XMLID_3_" x="-55.354" y="-8.437" transform="matrix(1 0 0 -1 470.7626 80.5848)" style="overflow:visible;"/>
<use xlink:href="#FrontLeg"  width="44.061" height="12.588" id="XMLID_7_" x="-55.354" y="-8.437" transform="matrix(1 0 0 1 471.0959 109.9181)" style="overflow:visible;"/>
</svg>
