<?xml version="1.0" encoding="iso-8859-1"?>
<!-- Generator: Adobe Illustrator 19.1.0, SVG Export Plug-In . SVG Version: 6.00 Build 0)  -->
<svg version="1.1" id="Layer_3" xmlns="http://www.w3.org/2000/svg" xmlns:xlink="http://www.w3.org/1999/xlink" x="0px" y="0px"
	 viewBox="0 0 318.667 178" style="enable-background:new 0 0 318.667 178;" xml:space="preserve">
<symbol  id="Lip" viewBox="-26.287 -21.761 57.36 40.874">
	<g>
		<defs>
			<path id="SVGID_1_" d="M-19,14.635c0,0,35.314,5.775,37.964-10.306c3.757-22.801-32.757-19.848-32.757-19.848L-19,14.635z"/>
		</defs>
		<use xlink:href="#SVGID_1_"  style="overflow:visible;fill:#FFF93E;"/>
		<clipPath id="SVGID_2_">
			<use xlink:href="#SVGID_1_"  style="overflow:visible;"/>
		</clipPath>
		<path style="clip-path:url(#SVGID_2_);fill:#D7CBB5;" d="M12.328,8.521c-0.978,0-1.805-0.233-2.486-0.625
			c-0.612,1.739-2.115,3.125-4.514,3.125c-6.435,0-6.445-10,0-10c0.978,0,1.805,0.233,2.486,0.625
			c0.098-0.28,0.218-0.55,0.363-0.807C5.193,0.678,3.7-1.706,3.678-4.104C2.936-3.453,1.942-3.031,0.696-2.989
			c1.537,2.492,0.813,6.395-2.205,7.524c3.399,2.41,2.464,9.153-2.829,9.153c-2.159,0-3.591-1.128-4.302-2.624
			c-0.797,0.783-1.916,1.29-3.364,1.29c-5.729,0-6.361-7.921-1.883-9.66c-1.4-2.278-0.91-5.73,1.482-7.171
			c-2.698-2.72-1.572-8.669,3.4-8.669c2.86,0,4.44,1.977,4.758,4.171c0.372-2.127,1.95-4.005,4.742-4.005
			c3.205,0,4.815,2.48,4.829,4.97c0.782-0.687,1.828-1.137,3.171-1.137c4.425,0,5.812,4.728,4.151,7.682
			C18.756-1.135,18.664,8.521,12.328,8.521z M-6.558,3.647C-6.95,4.012-7.419,4.306-7.96,4.515c0.092,0.15,0.181,0.303,0.256,0.462
			c0.421-0.414,0.935-0.747,1.538-0.972C-6.312,3.901-6.427,3.767-6.558,3.647z M-3.547-5.126c-0.377-0.608-0.619-1.299-0.724-2.016
			c-0.155,0.874-0.508,1.708-1.071,2.383C-4.819-4.98-4.215-5.101-3.547-5.126z"/>
		<path style="opacity:0.19;clip-path:url(#SVGID_2_);" d="M29.42,8.103c-6.373,5.44-13.238,8.795-21.634,9.583
			c-9.692,0.91-19.529,0.97-29.253,1.421c-6.434,0.298-6.419-9.703,0-10C-13.427,8.734-5.386,8.368,2.655,7.99
			c7.656-0.36,13.744-1.878,19.694-6.957c0.032-0.027,0.066-0.049,0.098-0.076c-0.878-0.178-1.746-0.674-2.516-1.584
			c-8.905-10.524-21.2-9.991-33.782-11.11c-6.36-0.565-6.419-10.571,0-10c8.228,0.732,16.29,0.299,24.242,3.033
			c6.426,2.21,12.202,5.794,16.612,11.005c2.185,2.582,1.247,5.785-0.738,7.504C30.056,0.276,33.077,4.982,29.42,8.103z"/>
		<use xlink:href="#SVGID_1_"  style="overflow:visible;fill:none;stroke:#000000;stroke-width:3;stroke-miterlimit:10;"/>
	</g>
</symbol>
<use xlink:href="#Lip"  width="57.36" height="40.874" id="XMLID_56_" x="-26.287" y="-21.761" transform="matrix(0.9481 0.0273 0.0226 -0.7862 -297.4907 333.7325)" style="overflow:visible;"/>
<use xlink:href="#Lip"  width="57.36" height="40.874" id="XMLID_3_" x="-26.287" y="-21.761" transform="matrix(1.0492 -0.0066 0.0048 0.7732 -298.2001 361.4842)" style="overflow:visible;"/>
<g>
	<defs>
		<ellipse id="XMLID_6_" cx="-322.667" cy="349.833" rx="24" ry="33.5"/>
	</defs>
	<use xlink:href="#XMLID_6_"  style="overflow:visible;fill:#D7CBB5;"/>
	<clipPath id="XMLID_10_">
		<use xlink:href="#XMLID_6_"  style="overflow:visible;"/>
	</clipPath>
	<path style="clip-path:url(#XMLID_10_);fill:#D7CBB5;" d="M-299.917,325.583c-68-14.75-40,78,3.5,42l-41.75,43.25l-6.5-110.25
		L-299.917,325.583z"/>
	<path style="opacity:0.2;clip-path:url(#XMLID_10_);" d="M-299.292,336.559c-15.927-10.409-31.011-9.593-45.907-6.274
		l10.717-24.015l37.191,0.497L-299.292,336.559z"/>
	<path style="opacity:0.2;clip-path:url(#XMLID_10_);" d="M-298.542,360.77c-15.927,10.409-31.011,9.593-45.907,6.274l10.717,24.015
		l37.191-0.497L-298.542,360.77z"/>
	<use xlink:href="#XMLID_6_"  style="overflow:visible;fill:none;stroke:#000000;stroke-width:2;stroke-miterlimit:10;"/>
</g>
<g>
	<defs>
		<path id="SVGID_3_" d="M-327.151,344.502c0,37.648-23.625,68.169-59.64,68.169s-70.783-30.52-70.783-68.169
			s34.768-68.169,70.783-68.169S-327.151,306.853-327.151,344.502z"/>
	</defs>
	<use xlink:href="#SVGID_3_"  style="overflow:visible;fill:#D7CBB5;"/>
	<clipPath id="SVGID_4_">
		<use xlink:href="#SVGID_3_"  style="overflow:visible;"/>
	</clipPath>
	<path style="opacity:0.16;clip-path:url(#SVGID_4_);" d="M-323.297,296.63c-1.005-0.606-2.022-1.178-3.04-1.746
		c-16.192-15.919-41.753-21.046-63.714-19.427c-19.731,1.455-38.422,9.279-51.923,23.395c-5.881,4.296-10.599,10.071-13.596,16.806
		c-0.616,1.384-0.527,2.999,0.024,4.4c0.045,3.862,4.808,7.098,8.423,3.632c5.429-5.205,11.329-9.705,17.705-13.556
		c2.152-1.24,4.323-2.449,6.514-3.625c9.767-4.524,20.338-7.63,30.292-10.052c10.706-2.605,21.972-3.951,32.909-2.013
		c9.66,1.712,18.93,5.767,28.049,9.508c0.449,0.317,0.906,0.619,1.349,0.945c1.076,0.791,2.16,1.024,3.153,0.871l0.001,0
		C-321.75,307.89-318.594,299.465-323.297,296.63z"/>
	<path style="opacity:0.16;clip-path:url(#SVGID_4_);" d="M-327.297,393.706c-1.005,0.606-2.022,1.178-3.04,1.746
		c-16.192,15.919-41.753,21.046-63.714,19.427c-19.731-1.455-38.422-9.279-51.923-23.395c-5.881-4.296-10.599-10.071-13.596-16.806
		c-0.616-1.384-0.527-2.999,0.024-4.4c0.045-3.862,4.808-7.098,8.423-3.632c5.429,5.205,11.329,9.705,17.705,13.556
		c2.152,1.24,4.323,2.449,6.514,3.625c9.767,4.524,20.338,7.63,30.292,10.052c10.706,2.605,21.972,3.951,32.909,2.013
		c9.66-1.712,18.93-5.767,28.049-9.508c0.449-0.317,0.906-0.619,1.349-0.945c1.076-0.791,2.16-1.024,3.153-0.871l0.001,0
		C-325.75,382.446-322.594,390.871-327.297,393.706z"/>
	<use xlink:href="#SVGID_3_"  style="overflow:visible;fill:none;stroke:#000000;stroke-width:5.2728;stroke-miterlimit:10;"/>
</g>
<g>
	<defs>
		<path id="XMLID_55_" d="M-446.314,299.331c-64.502-48.985-151.692-61.948-209.98-31.228
			c-25.07,13.212-45.266,31.954-56.879,49.615c-10.803,16.428-12.065,36.627-3.975,54.295c7.169,15.655,19.827,32.008,37.859,45.986
			c49.681,38.51,150.119,32.684,232.975-29.146C-426.95,370.635-423.925,320.15-446.314,299.331z"/>
	</defs>
	<use xlink:href="#XMLID_55_"  style="overflow:visible;fill:#172211;"/>
	<clipPath id="XMLID_12_">
		<use xlink:href="#XMLID_55_"  style="overflow:visible;"/>
	</clipPath>
	<path style="clip-path:url(#XMLID_12_);fill:#FFF93E;" d="M-646.572,363.336c-0.282-8.261-3.314-15.914-4.896-23.938
		c-0.816-4.138-0.884-8.063,0.167-12.162c0.935-3.647,2.119-7.246,1.87-11.058c-0.243-3.704-2.104-6.085-3.589-9.307
		c-1.475-3.201,0.245-6.316,1.501-9.341c2.797-6.734,3.513-12.53,0.174-19.259c-0.713-1.436-3.366-4.815-5.345-8.313
		c0.892-2.125-0.092-5.092-2.28-6.524c0.014-1.144,0.404-2.119,1.343-2.806c5.144-3.759,0.16-12.44-5.047-8.635
		c-4.897,3.579-6.546,8.816-5.665,14.514c-1.443,2.298-1.983,5.262-1.495,7.97c0.989,5.484,7.579,8.776,7.222,14.376
		c-0.621,9.751-10.134,17.756-5.385,28.024c1.163,2.515,4.113,4.334,4.933,6.834c0.912,2.779-1.763,6.972-2.423,9.781
		c-1.509,6.423-1.124,12.99-0.234,19.464c0.974,7.089,2.709,14.104,3.061,21.267c0.376,7.657-1.957,13.319-4.954,20.208
		c-1.429,3.284-2.605,6.7-2.524,10.329c0.091,4.083,2.22,7.004,3.411,10.732c0.42,1.313,0.538,2.729,0.507,4.177
		c-0.902,7.665-1.616,15.358-2.306,23.048c-0.577,6.421,9.385,6.347,10,0c0.5-5.164,1-10.328,1.5-15.493
		c0.205-2.116,0.542-4.317,0.702-6.516c1.271-10.784,2.94-21.507,5.556-32.086C-648.726,380.364-646.279,371.937-646.572,363.336z"
		/>
	<path style="clip-path:url(#XMLID_12_);fill:#FFF93E;" d="M-595.13,342.122c-1.485-3.434-3.517-6.656-4.785-10.18
		c-1.477-4.103-1.047-7.965-0.041-12.116c1.752-7.231,4.101-14.536,1.379-21.855c-1.273-3.423-3.623-6.32-5.223-9.329
		c0.534-2.236,0.806-4.534,0.407-7.034c-0.189-1.188-0.518-2.322-0.935-3.419c2.799-6.469,5.097-12.526,1.023-19.156
		c-3.32-5.403-10.579-8.786-12.309-15.027c-1.73-6.242-10.961-3.606-9.643,2.658c0.027,0.128,0.054,0.257,0.081,0.385
		c-0.922,0.778-1.643,1.832-2,3.154c-0.245,0.907-0.238,1.732-0.061,2.47c-1.763,1.058-2.865,3.001-1.928,5.329
		c1.025,2.545,2.049,5.091,3.074,7.636c0.142,0.835,0.471,1.684,1.036,2.516c0.766,1.127,1.899,1.783,3.117,2.045
		c0.795,1.885,1.52,3.793,2.158,5.727c0.669,4.716,1.201,9.451,1.488,14.215c0.014,0.237,0.023,0.475,0.036,0.712
		c-0.779,7.31-2.545,14.76-2.73,21.437c-0.11,3.989,0.32,7.785,1.183,11.493c-0.064,2.852,0.084,5.704,0.672,8.558
		c1.188,5.775,4.895,10.678,6.062,16.423c0.74,3.641-0.015,7.313-1.131,10.839c-0.511,0.398-1.026,0.79-1.534,1.191
		c-3.165,2.493-5.712,5.965-3.911,10.133c0.244,0.564,0.573,1.091,0.964,1.574c-1.252,4.159-2.033,8.343-1.545,12.517
		c-1.484,4.394-2.427,8.935-2.128,13.819c0.528,8.636,4.816,16.037,7.584,24.041c0.287,0.831,0.562,1.733,0.81,2.673
		c0.113,1.598,0.166,3.205,0.123,4.825c-0.032,1.209,0.295,2.191,0.849,2.946c-0.068,1.559-0.343,3.066-0.886,4.443
		c-1.427,1.752-2.927,3.442-4.395,5.095c-3.556,4.002,1.087,11.189,6.027,7.872c0.035,0.278,0.063,0.552,0.102,0.832
		c0.883,6.347,10.52,3.646,9.643-2.658c-0.41-2.947-0.598-5.944-0.571-8.937c1.857-2.648,3.505-5.431,4.749-8.453
		c2.92-7.095,2.776-14.53,1.365-21.96c-1.516-7.987-4.758-15.851-4.678-24.073c0.078-7.982,4.559-14.847,7.128-22.177
		C-591.981,356.106-592.1,349.129-595.13,342.122z"/>
	<path style="clip-path:url(#XMLID_12_);fill:#FFF93E;" d="M-523.556,330.789c2.318-8.008,2.333-16.14,0.209-24.205
		c-4.176-15.857-19.186-34.876-9.907-51.472c1.821-3.256-0.457-7.577-4.317-7.524c-6,0.083-10.389,3.02-13.003,7.288
		c-2.147-1.136-5.08-0.995-6.831,1.566c-9.382,13.722-7.212,30.79-3.628,46.058c0.523,2.227,1.076,4.455,1.61,6.688
		c0.331,0.863,0.658,1.728,0.978,2.597c3.992,10.862,5.27,21.757,3.075,33.168c-1.49,7.744-3.135,15.457-4.861,23.153
		c0.494,4.839,0.59,9.635-0.496,14.713c-0.54,2.527-1.223,4.999-1.991,7.436c0.713,6.985,1.185,13.814-0.263,20.962
		c-3.203,15.816-9.651,33.21,0.519,47.967c2.206,3.201,6.431,3.215,8.635,0c10.057-14.67,20.368-30.209,22.917-48.201
		c2.641-18.64-6.899-37.342-1.795-55.685C-530.362,346.873-525.986,339.183-523.556,330.789z"/>
	<path style="clip-path:url(#XMLID_12_);fill:#D7CBB5;" d="M-570.97,351.365c0.024-0.045,0.042-0.089,0.067-0.134
		c1.157-2.177,2.427-4.245,3.492-6.405c0.164-0.279,0.315-0.568,0.462-0.858c1.968-3.069,3.13-6.719,3.358-10.497
		c0.618-10.235-5.987-18.877-11.941-26.489c-0.775-0.991-1.669-1.51-2.574-1.675c-3.265-3.372-6.719-6.577-9.391-10.436
		c-4.831-6.976-5.573-15.199-4.641-23.445c1.323-3.83,2.065-7.744,2.231-11.748c0.654-2.629,1.364-5.197,2.046-7.66
		c0.946-3.418-1.55-5.753-4.271-6.133c-1.865-1.879-5.294-1.878-7.246-0.262c-2.444-3.213-9.425-1.618-9.044,3.222l0.152,1.926
		c-0.913,0.787-1.588,1.899-1.776,3.345c-1.039,7.973-1.204,15.983-0.305,23.979c0.909,8.081,3.852,16.009,4.269,24.101
		c0.367,7.133-0.802,13.286,2.972,19.792c0.021,0.036,0.042,0.07,0.063,0.106c-0.633,6.513,1.305,13.031,2.946,19.504
		c-0.217,0.811-0.443,1.618-0.671,2.415c-0.735,2.572,0.497,4.529,2.314,5.5c0.926,6.483,0.705,13.019-0.494,19.41
		c-1.383,3.518-2.409,7.146-3.025,10.945c-0.207,1.276-0.017,2.385,0.418,3.307c-0.002,0.057,0,0.115-0.001,0.172
		c-1.898,3.869-2.71,8.414-2.166,13.117c0.869,7.513,3.04,14.49,2.805,22.15c-0.19,6.184-1.275,12.273-2.569,18.313
		c-1.771,1.065-3.832,1.746-6.14,1.888c-6.393,0.395-6.438,10.398,0,10c2.104-0.13,4.076-0.492,5.919-1.046
		c2.174,2.27,6.42,2.43,8.058-0.846c2.846-2.842,4.374-6.289,5.38-9.973c1.563-2.784,2.613-5.92,3.106-9.263
		c1.034-3.69,1.744-7.443,2.861-11.143c0.237-0.784,0.519-1.542,0.822-2.287c3.607-4.648,7.12-9.624,9.97-14.904
		c2.422-3.102,4.724-6.285,6.341-9.888c4.034-8.981,2.619-16.522-1.817-24.582c-0.061-0.195-0.119-0.39-0.182-0.584
		c-1.211-3.707-2.7-7.228-2.109-11.212C-571.193,352.504-571.086,351.933-570.97,351.365z"/>
	<path style="clip-path:url(#XMLID_12_);fill:#D7CBB5;" d="M-537.289,391.116c-1.513-9.938-4.819-19.406-4.473-29.576
		c0.215-6.317,1.564-12.441,3.853-18.233c6.952-9.034,11.707-19.49,10.563-31.38c-1.533-15.944-16.164-35.477-5.725-50.788
		c3.274-4.802-3.426-9.337-7.426-6.325c-0.244-0.121-0.495-0.224-0.754-0.307c0.458-1.042,0.553-2.248,0.325-3.383
		c0.12-3.554-4.187-6.998-7.552-4.624c-10.716,7.561-15.178,19.857-15.593,32.633c-0.271,8.334,1.351,16.457,3.05,24.577
		c0.777,14.959,2.48,30.071,1.001,44.326c-1.837,17.704-6.041,35.161-6.072,53.035c-0.006,3.285,0.175,6.777,0.319,10.342
		c-0.858,4.358-1.716,8.716-2.574,13.074c-5.961,8.272-9.174,17.821-9.093,28.192c0.051,6.432,10.051,6.447,10,0
		c-0.002-0.302,0.007-0.602,0.011-0.903c0.663-0.226,1.273-0.607,1.768-1.174c0.04-0.046,0.074-0.095,0.114-0.141
		c1.88,0.238,3.966-0.482,5.23-2.226c1.416-1.955,2.832-3.91,4.249-5.865c2.14,1.364,5.364,1.151,7.186-1.455
		c0.646-0.924,1.266-1.863,1.863-2.814c0.06,0.099,0.108,0.2,0.171,0.299c2.882,4.494,8.696,2.225,9.317-2.524
		c0.938-7.176,0.647-14.24-0.242-21.252C-536.287,406.934-536.091,398.982-537.289,391.116z M-554.127,379.323
		c0.106,0.696,0.216,1.393,0.33,2.091c-0.197,0.029-0.393,0.067-0.586,0.117C-554.299,380.795-554.215,380.059-554.127,379.323z"/>
	<path style="clip-path:url(#XMLID_12_);fill:#D7CBB5;" d="M-442.303,380.302c7.271-10.91,9.878-32.137,10.327-39.274
		c0.067-1.059-0.216-1.963-0.719-2.698c-0.363-11.471-4.718-21.149-11.254-29.481c-8.869-13.978-22.57-24.888-38.306-30.239
		c-2.444-1.911-4.921-3.782-7.431-5.613c-1.483-1.082-3.101-1.011-4.46-0.302c-1.602-1.378-3.213-2.745-4.842-4.091
		c-0.594-1.766-2.323-3.093-4.213-3.424c-6.261-4.997-12.701-9.772-19.309-14.309c-4.646-3.19-10.355,4.13-6.059,7.853
		c7.37,6.387,14.74,12.774,22.11,19.161c1.345,1.485,3.002,2.84,4.66,4.039c4.329,3.751,8.658,7.503,12.987,11.254
		c1.176,1.019,2.457,1.426,3.659,1.382c0.089,0.088,0.181,0.174,0.27,0.263c6.401,6.358,12.525,12.994,18.346,19.887
		c1.847,2.187,3.751,4.448,5.456,6.821c1.602,6.358,3.549,12.621,5.852,18.789c0.223,0.596,0.514,1.099,0.842,1.54
		c-1.123,7.287-3.366,14.452-5.439,20.266c-4.33,12.145-10.768,23.384-18.834,33.344c-17.899,10.419-34.338,23.01-45.745,40.793
		c-3.161,4.928,3.791,9.796,7.853,6.059c9.285-8.541,18.997-16.549,29.119-24.024c0.339-0.13,0.676-0.304,1.01-0.538
		c5.554-3.901,11.107-7.802,16.661-11.703c0.834-0.586,1.408-1.299,1.766-2.066c0.32-0.141,0.649-0.267,0.967-0.411
		c1.337,1.003,3.129,1.202,4.939-0.188c2.689-2.065,5.217-4.304,7.574-6.693c3.939-2.579,7.698-5.465,11.265-8.657
		c2.325-2.08,1.893-4.766,0.262-6.527C-442.756,381.112-442.527,380.709-442.303,380.302z"/>
	<path style="clip-path:url(#XMLID_12_);fill:#FFF93E;" d="M-469.646,354.031c1.768-3.156,3.379-6.436,3.268-10.151
		c-0.236-7.867-9.403-11.476-9.259-18.954c0.144-7.478,2.353-13.509-0.841-20.727c-2.296-5.189-6.169-9.479-10.337-13.255
		c-8.245-7.468-23.155-15.232-24.152-27.643c-0.212-2.635-2.048-4.187-4.092-4.649c0.061-1.379,0.196-2.77,0.427-4.178
		c1.059-6.441-7.162-8.567-9.643-2.658c-4.044,9.631-1.296,19.869,3.925,28.454c5.024,12.087,13.225,23.24,19.438,35.003
		c5.79,10.963,8.07,22.503,6.678,34.854c-1.393,12.35-5.615,24.254-9.829,35.89c-2.025,3.144-4.115,6.225-6.112,9.267
		c-8.654,13.18-17.185,27.503-16.169,43.865c0.234,3.778,4.007,5.783,6.975,4.546c2.386,0.923,5.265,0.155,6.186-3.234
		c1.141-4.197,2.618-8.148,4.388-11.887c2.506-3.988,5.013-7.976,7.519-11.964c2.113-2.684,4.306-5.318,6.419-7.973
		c3.315-3.443,6.95-6.668,10.89-9.698c5.612-4.315,11.091-9.926,9.969-17.594c-0.167-1.143-1.604-4.098-1.257-5.143
		c0.357-1.077,2.278-1.996,3.082-2.879c2.731-2.995,2.839-6.665,1.412-10.294c-0.639-1.625-1.507-2.781-1.194-4.551
		C-471.687,356.958-470.386,355.351-469.646,354.031z"/>
	<path style="clip-path:url(#XMLID_12_);fill:#FFF93E;" d="M-671.297,354.321c1.179-6.639-1.312-12.684-3.521-18.802
		c-1.259-3.487-2.451-6.976-2.075-10.734c0.399-3.984,2.095-7.797,2.754-11.742c0.899-5.378,0.083-10.584-1.39-15.711
		c0.935-1.699,1.853-3.412,2.608-5.203c4.014-9.522,0.648-24.664-12.01-24.399c-2.163,0.045-4.277,1.517-4.821,3.671
		c-0.514,2.033-0.718,4.024-0.71,5.986c-0.306,2.217-0.546,4.433-0.74,6.649c-4.804,8.38-3.029,17.707-2.225,27.369
		c0.548,6.586-0.764,11.799-2.681,18.035c-1.975,6.426-2.083,12.753-1.892,19.422c0.409,14.318,0.83,28.636,1.245,42.954
		c0.182,6.281-0.303,13.181,1.703,19.234c0.764,2.307,2.483,4.547,4.039,6.817c0.029,0.186,0.057,0.372,0.089,0.557
		c-0.035,0.478-0.062,0.957-0.075,1.436c-0.112,0.276-0.218,0.554-0.334,0.829c-0.689,1.639-0.291,3.124,0.657,4.235
		c0.351,2.215,0.994,4.452,2.021,6.721c2.302,5.085,9.105,1.92,9.126-2.815c0.887-0.919,1.496-2.104,1.56-3.348
		c0.141-2.748-0.538-5.144-1.63-7.404c0.187-0.613,0.361-1.227,0.519-1.844c1.744-5.489,2.923-11.135,3.506-16.847
		c0.928-2.456,1.742-4.83,2.226-7.065c1.333-6.144,1.215-12.043-0.951-17.972c-1.388-3.798-1.838-6.418-0.451-10.221
		C-673.552,360.838-671.915,357.805-671.297,354.321z"/>
	<path style="clip-path:url(#XMLID_12_);fill:#FFF93E;" d="M-629.274,362.1c0.525-9.613,0.584-19.242,0.617-28.867
		c0.032-9.16-0.012-18.366-1.768-27.394c-0.923-4.746-3.437-9.66-3.099-14.542c0.294-4.239,1.742-8.061,1.142-12.376
		c-0.536-3.852-2.442-6.938-4.569-10.113c-0.894-1.335-5.039-6.697-2.63-8.325c5.303-3.584,0.305-12.251-5.047-8.635
		c-5.852,3.955-6.657,11.091-3.813,17.269c1.567,3.404,4.699,6.194,5.867,9.759c1.476,4.504-1.12,9.569-0.989,14.204
		c0.133,4.689,2.1,9.077,3.115,13.597c1.131,5.035,1.525,10.175,1.697,15.322c0.321,9.594,0.132,19.247-0.094,28.842
		c-0.476,20.215-2.694,40.326-6.841,60.121c-1.738,8.298-4.431,15.969-0.915,24.154c1.882,4.38,9.484,12.577,7.037,17.52
		c-2.846,5.749,5.776,10.821,8.635,5.047c3.18-6.424,1.392-12.323-1.956-18.283c-1.511-2.691-3.35-5.283-4.559-8.135
		c-1.767-4.167-0.785-7.792,0.177-12.04C-633.019,400.456-630.324,381.316-629.274,362.1z"/>
	<path style="clip-path:url(#XMLID_12_);fill:#D7CBB5;" d="M-636.067,387.377c-0.182-3.062,3.026-6.594,4.293-9.2
		c3.434-7.064,1.702-12.669-1.032-19.598c-3.267-8.281,1.946-14.865,2.58-23.127c0.599-7.803-2.869-14.927-4.623-22.342
		c-2.176-9.2,3.069-17.327,2.495-26.483c-0.631-10.061-4.868-20.41-7.563-30.069c-1.727-6.19-11.378-3.561-9.643,2.658
		c2.236,8.015,4.931,16.047,6.657,24.188c1.765,8.328-2.656,15.687-2.698,23.946c-0.037,7.276,3.095,13.871,4.712,20.825
		c1.889,8.12-2.261,14.237-3.221,22.066c-0.402,3.281,0.02,6.487,1.118,9.599c1.105,3.132,3.33,6.435,3.415,9.842
		c0.075,3.046-2.156,5.789-3.559,8.337c-1.583,2.875-2.955,6.008-2.931,9.357c0.02,2.875,1.149,5.622,2.639,8.028
		c1.419,2.293,4.296,4.758,2.968,7.42c-1.152,2.31-3.955,3.876-5.293,6.196c-1.509,2.616-1.856,5.649-1.555,8.607
		c0.25,2.46,2.177,6.674,1.117,8.899c-0.573,1.203-2.83,1.926-3.75,3.042c-1.022,1.24-1.549,2.47-1.748,4.053
		c-0.859,6.849,9.48,11.418,2.652,17.985c-4.648,4.469,2.429,11.535,7.071,7.071c4.478-4.306,6.413-10.81,4.704-16.854
		c-0.392-1.386-0.98-2.808-1.729-4.047c-0.354-0.585-1.523-2.189-2.083-2.646c0.665-0.315,2.216-1.634,2.584-2.058
		c1.033-1.189,1.781-2.654,2.168-4.183c0.725-2.862,0.108-5.848-0.432-8.676c-0.741-3.882-1.064-5.501,1.671-8.496
		c4.462-4.887,6.947-9.915,3.567-16.334C-632.788,392.967-635.899,390.213-636.067,387.377z"/>
	<path style="clip-path:url(#XMLID_12_);fill:#D7CBB5;" d="M-676.794,394.983c-0.047-1.507-0.674-2.685-1.583-3.514
		c0.228-13.631-3.15-27.236-9.929-39.213c0.495-3.005,0.729-6.08,0.872-9.172c0.41-8.852,1.127-17.446,3.396-26.06
		c4.195-15.928,16.863-31.771,12.347-48.879c-1.166-4.418-6.782-4.59-9.139-1.194c-1.065,1.534-2.101,3.086-3.133,4.64
		c-1.148-0.036-2.34,0.453-3.385,1.701c-0.7,0.835-1.43,1.636-2.15,2.45c-2.166-1.936-5.767-2.233-7.486,1.068
		c-2.251,4.323-4.502,8.645-6.753,12.968c-2.062,3.961,1.039,7.446,4.547,7.338c-1.014,6.855-1.549,13.764-1.59,20.701
		c-0.057,1.578-0.068,3.159-0.018,4.745c-0.427,4.03-0.768,8.067-1.022,12.111c-0.349,2.488-0.65,4.983-0.889,7.486
		c-1.115,11.68-0.832,23.341-0.002,35.028c0.039,0.551,0.08,1.104,0.12,1.656c-0.306,3.278-0.613,6.555-0.919,9.833
		c-1.024,10.958-3.089,22.027,1.333,32.48c1.353,3.197,6.256,3.058,8.291,0.611c1.041,1.352,2.303,2.515,3.849,3.381
		c5.753,3.226,11.959-0.457,13.421-6.487c0.827-3.414,0.339-7.153,0.232-10.607C-676.522,403.696-676.658,399.339-676.794,394.983z"
		/>
	<path style="clip-path:url(#XMLID_12_);fill:#FFF93E;" d="M-542.897,250.537c4.306-4.764-2.744-11.857-7.071-7.071
		c-11.199,12.389-17.825,28.222-18.564,44.941c-0.798,18.056,9.224,34.429,7.833,52.331c-0.123,1.112-0.267,2.227-0.439,3.348
		c-2.582,16.749-4.369,33.405-6.086,50.261c-1.724,16.915-4.537,33.937-12.685,49.074c-2.013,3.739,0.789,7.033,3.963,7.361
		c-0.379,0.738-0.754,1.478-1.159,2.204c-3.14,5.625,5.495,10.674,8.635,5.047c4.407-7.896,7.474-16.401,8.809-25.357
		c1.332-8.932-0.49-18.378,1.787-27.108c2.445-9.372,5.874-17.082,5.241-27.037c-0.286-4.504-0.981-8.978-0.97-13.5
		c0.012-5.013,0.891-9.923,1.666-14.858c0.29-1.846,0.531-3.672,0.733-5.488c0.877-6.127,1.418-12.271,0.939-18.501
		c-0.693-9.018-2.908-17.817-3.936-26.788c-1.719-15.008-0.318-31.715,10.105-43.501c1.434-1.622,1.579-3.503,0.981-5.1
		C-543.042,250.71-542.973,250.621-542.897,250.537z"/>
	<linearGradient id="SVGID_5_" gradientUnits="userSpaceOnUse" x1="-717.1813" y1="348.4886" x2="-597.2689" y2="348.4886">
		<stop  offset="0" style="stop-color:#FFFFFF;stop-opacity:0.5"/>
		<stop  offset="1" style="stop-color:#000000;stop-opacity:0"/>
	</linearGradient>
	<path style="clip-path:url(#XMLID_12_);fill:url(#SVGID_5_);" d="M-465.021,389.736c0.153-0.092,0.293-0.176,0.424-0.254
		c-0.128,0.077-0.262,0.157-0.425,0.255c-30.767,18.446-70.413,36.509-110.489,42.557c-1.486,3.153-6.108,3.283-8.314,1.078
		c-23.507,2.539-46.962,0.674-68.662-7.951c-50.883-20.226-75.094-67.192-46.625-112.023c24.28-38.234,75.308-53.401,123.137-50.683
		c90.931,5.168,22.065-17.392-24.793-14.15c-97.333,6.736-169.131,89.587-110.866,162.15c31.198,38.854,80.74,40.817,131.893,36.3
		c27.915-2.465,59.967-11.299,85.56-23.968c2.427-1.201,34.661-21.058,35.266-24.321
		C-458.458,396.267-454.694,383.546-465.021,389.736z M-470.28,392.889C-470.409,392.967-470.406,392.965-470.28,392.889
		L-470.28,392.889z M-465.412,389.971c-0.529,0.317-1.006,0.603-1.439,0.863C-466.347,390.531-465.854,390.236-465.412,389.971z
		 M-467.457,391.197c-0.166,0.1-0.309,0.185-0.459,0.275C-467.764,391.381-467.612,391.29-467.457,391.197z M-469.545,392.449
		c-0.048,0.029-0.081,0.049-0.124,0.074C-469.628,392.498-469.589,392.475-469.545,392.449z"/>
	<ellipse style="opacity:0.28;clip-path:url(#XMLID_12_);fill:#FFFFFF;" cx="-567.333" cy="347.333" rx="128.667" ry="55.333"/>
	<use xlink:href="#XMLID_55_"  style="overflow:visible;fill:none;stroke:#172211;stroke-width:5;stroke-miterlimit:10;"/>
</g>
<path style="fill:none;stroke:#1A1517;stroke-miterlimit:10;" d="M-418.613,396.298"/>
<g>
	<defs>
		<path id="XMLID_2_" d="M-355.167,175.333c24.664-33.685,49.331-61.404,74-81.5c4.585-16.217,10.949-30.562,18.482-43.675
			c-1.842-12.332-1.242-24.951,1.518-37.825c-3.207-31.908-3.978-62.482,1.5-91.5c0.958-6.379,3.563-5.764,7.5,0.5
			c8.895,28.591,10.608,59.344,6,92c3.212,11.754,2.587,24.451-1.5,38c-3.39,20.695-9.067,39.814-19,56
			c-14.707,26.272-33.625,49.856-59.5,69C-341.833,187.333-351.5,187-355.167,175.333z"/>
	</defs>
	<use xlink:href="#XMLID_2_"  style="overflow:visible;fill:#28241B;"/>
	<clipPath id="XMLID_13_">
		<use xlink:href="#XMLID_2_"  style="overflow:visible;"/>
	</clipPath>
	<path style="clip-path:url(#XMLID_13_);fill:#FFF93E;" d="M-244.434-74.777c-6.856-2.607-13.869-2.992-21.051-1.664
		c-2.855,0.528-3.869,2.784-3.547,4.992c-4.821,1.461-4.277,9.576,1.572,9.773c1.754,0.059,3.505,0.083,5.255,0.085
		c4.684,0.152,9.351,0.515,14.014,1.104c3.476,0.439,5.032-2.343,4.707-5.09C-239.883-67.46-239.984-73.085-244.434-74.777z"/>
	<path style="clip-path:url(#XMLID_13_);fill:#FFF93E;" d="M-237.546,1.914c0.726-2.966-0.602-6.259-4.527-5.802
		c-8.999,1.048-17.999,2.096-26.998,3.143c-5.478,0.638-6.94,7.908-1.329,9.821c0.36,0.123,0.724,0.229,1.085,0.345
		c0.592,0.244,1.208,0.433,1.837,0.584c7.595,5.178,20.819,3.448,28.538,0.904C-234.619,9.484-234.396,4.016-237.546,1.914z"/>
	<path style="clip-path:url(#XMLID_13_);fill:#FFF93E;" d="M-251.225,86.622c0.224-1.676-0.47-3.372-2.553-4.314
		c-5.526-2.5-10.889-5.314-16.021-8.551c-4.695-2.962-8.303-6.721-14.156-5.66c-3.673,0.666-4.846,5.958-2.206,8.357
		c0.559,0.508,1.126,1.005,1.698,1.493c-0.003,0.009-0.008,0.019-0.011,0.028c-1.625,1.07-2.609,2.951-1.848,5.21
		c0.049,0.146,0.117,0.275,0.17,0.418c-0.641,1.275-0.679,2.842,0.34,4.45c5.959,9.399,15.264,14.955,26.269,16.16
		c3.271,0.358,5.413-3.224,4.857-6.15c0.939-0.932,1.462-2.35,1.477-3.602c0.009-0.739-0.089-1.407-0.258-2.026
		c1.128-0.75,1.961-1.914,2.245-3.668C-251.105,88.042-251.112,87.316-251.225,86.622z"/>
	<path style="clip-path:url(#XMLID_13_);fill:#FFF93E;" d="M-294.74,149.414c-8.319-7.741-16.638-15.481-24.956-23.222
		c-3.928-3.655-8.672,0.007-8.269,4.166c-2.591,0.162-4.309,2.786-4.255,5.37c-1.247,0.676-2.227,1.769-2.51,3.088
		c-1.393,1.155-2.289,3.058-2.052,5.013c-3.129,0.376-6.108,3.809-4.193,7.527c5.474,10.626,13.86,19.282,24.25,25.179
		c4.165,2.364,7.579-1.241,7.21-4.96c0.304,0.006,0.61,0,0.924-0.038c3.166-0.384,5.909-3.298,4.825-6.449
		c2.149-0.354,3.859-2.421,4.134-4.682c1.54-0.411,2.801-1.588,3.394-3.084C-293.441,155.927-291.796,152.154-294.74,149.414z"/>
	<path style="clip-path:url(#XMLID_13_);fill:#FFF93E;" d="M-238.575,30.69c-0.079-0.544-0.207-1.085-0.378-1.608
		c2.335-5.063-5.672-9.37-9.055-4.285c-0.154,0.232-0.307,0.481-0.46,0.733c-1.375,0.931-2.462,2.322-3.224,3.884
		c-2.586,5.304-1.322,11.943,2.994,15.948c3.553,3.297,8.453,0.098,8.625-3.557c0.27-0.28,0.522-0.578,0.742-0.906
		C-237.263,37.809-238.078,34.134-238.575,30.69z"/>
	<path style="opacity:0.42;clip-path:url(#XMLID_13_);fill:#FFFFFF;" d="M-232.544,15.076c-2.139-1.479-4.278-2.959-6.417-4.438
		c-2.037-1.409-2.992-1.584-3.23-3.93c-0.437-4.309,1.179-9.657,1.536-14.017c0.733-8.939,0.996-17.915,0.781-26.882
		c-0.402-16.731-1.315-34.947-7.963-50.54c0-0.002-0.001-0.004-0.001-0.006c0,0-0.001,0-0.001,0
		c-0.169-0.397-0.326-0.801-0.503-1.195c-1.177-2.619-3.482-3.049-5.492-2.232c-2.1-0.984-4.751-0.68-6.219,1.932
		c-10.411,18.529-12.999,38.903-12.137,59.438c-0.161,3.066-0.251,6.135-0.265,9.204c-0.035,7.872-1.053,19.196,3.186,26.724
		c2.108,15.618,1.421,30.856-3.758,46.237c-2.905,8.626-6.253,17.377-10.229,25.568c-3.602,7.419-8.643,13.014-14.592,18.599
		c-24.216,22.733-49.124,45.352-66.025,74.338c-1.788,3.066-0.112,5.861,2.357,6.911c-2.902,2.896-0.146,9.356,5.088,8.42
		c3.346-0.657,6.692-1.314,10.038-1.971c0.06,0.009,0.114,0.03,0.175,0.038c5.445,0.669,10.557-0.56,15.262-3.339
		c0.739-0.436,1.276-0.969,1.671-1.548c19.671-7.602,36.933-20.874,49.738-37.757c7.013-9.247,12.593-19.638,16.325-30.641
		c3.398-0.345,6.401-3.709,3.869-7.178c-0.415-0.569-0.83-1.138-1.246-1.706c0.573-1.799,1.346-3.488,2.803-4.903
		c2.58-2.505,5.087-4.782,7.122-7.785c3.658-5.399,5.624-11.89,6.805-18.244c3.092-16.647,4.214-33.834,5.858-50.741
		c0.138,0.094,0.28,0.185,0.417,0.28C-232.285,27.38-227.28,18.717-232.544,15.076z M-247.372,17.186
		c-1.729,16.073-3.236,32.189-5.212,48.235c-0.784,6.367-1.884,13.117-4.89,18.862c-2.633,5.032-7.651,8.048-10.544,12.725
		c-2.491-0.72-5.332,0.232-6.093,3.295c-9.678,38.949-41.999,69.902-81.023,78.472c10.768-15.948,23.799-30.109,38.669-42.316
		c2.239-1.838,2.028-4.272,0.672-6.027c10.261-9.901,21.123-19.223,30.908-29.56c5.784-6.111,9.641-13.102,12.898-20.801
		c3.545-8.379,7.066-16.847,9.738-25.552c4.334-14.117,4.931-28.355,3.367-42.654c0.694-1.085,1.029-2.457,0.775-3.939
		c-1.874-10.914-3.539-22.185-4.129-33.435c0.124-2.695,0.285-5.388,0.523-8.076c0.625-7.069,1.684-14.082,3.141-21.027
		c0.709-3.381,1.508-6.744,2.401-10.082c0.149-0.556,0.298-1.269,0.458-2.051c0.441,1.406,0.837,2.605,0.912,2.875
		c0.851,3.078,1.505,6.191,2.048,9.337c0.25,1.45,0.951,2.422,1.866,2.991c0.003,0.029,0.006,0.059,0.008,0.088
		c0.886,9.568,1.226,19.187,1.02,28.794c-0.207,9.661-1.342,19.126-2.256,28.723c-0.471,4.951,1.663,8.254,4.769,10.956
		C-247.354,17.075-247.366,17.128-247.372,17.186z"/>
	<use xlink:href="#XMLID_2_"  style="overflow:visible;fill:none;stroke:#000000;stroke-width:3;stroke-miterlimit:10;"/>
</g>
<g>
	<defs>
		<path id="XMLID_4_" d="M-572.167,153.333c10.793-26.545,14.044-54.487,11.5-83.5c-0.64-37.188-6.401-70.314-16.5-100
			c-4.929-33.623-14.855-53.879-25.551-72.074c-3.81-4.229-6.504-4.031-7.916,1.256c4.561,27.213,10.482,53.082,20.592,74.808
			c0.404,29.716,5.398,62.021,13.375,96.01c-10.508,22.451-17.379,49.245-18,83.5C-590.998,164.499-583.614,164.835-572.167,153.333
			z"/>
	</defs>
	<use xlink:href="#XMLID_4_"  style="overflow:visible;fill:#28241B;"/>
	<clipPath id="XMLID_14_">
		<use xlink:href="#XMLID_4_"  style="overflow:visible;"/>
	</clipPath>
	<path style="clip-path:url(#XMLID_14_);fill:#FFF93E;" d="M-571.776-43.464c1.5-3.452-1.115-8.452-5.703-6.972
		c-8.517,2.747-16.7,6.292-24.516,10.651c-3.347,1.866-2.921,5.944-0.647,8.025c0.325,1.128,0.995,2.181,1.905,2.918
		c-0.878,3.331,1.697,7.586,5.995,6.324c6.187-1.816,12.197-4.025,18.136-6.513c0.02-0.004,0.04-0.008,0.06-0.013
		c-0.001-0.003-0.003-0.007-0.004-0.01c0.399-0.167,0.801-0.324,1.199-0.494c2.132-0.909,2.794-2.675,2.513-4.421
		c0.232-0.063,0.461-0.133,0.694-0.195C-566.955-35.536-567.872-41.781-571.776-43.464z"/>
	<path style="clip-path:url(#XMLID_14_);fill:#FFF93E;" d="M-593.767-98.395c-0.729-2.81-2.737-4.089-5.091-4.465
		c-0.451-0.867-0.995-1.707-1.531-2.51c-0.289-0.481-0.596-0.956-0.94-1.419c-0.652-0.88-1.45-1.462-2.3-1.803
		c-3.03-1.597-8.021,0.857-7.586,5.299c-1.413,0.818-2.454,2.135-2.828,4.024c-0.209,1.057-0.154,2.017,0.116,2.855
		c-0.678,0.747-1.325,1.533-1.926,2.372c-0.171,0.239-0.308,0.479-0.427,0.718c-0.912,0.243-1.828,0.474-2.749,0.685
		c-6.271,1.435-3.617,11.079,2.658,9.643c5.157-1.18,10.137-2.931,14.903-5.234C-597.406-90.192-592.37-93.009-593.767-98.395z"/>
	<path style="clip-path:url(#XMLID_14_);fill:#FFF93E;" d="M-553.686,20.817c-0.316-1.812-0.912-4.336-1.796-7.005
		c-0.443-2.719-1.167-5.349-2.778-7.7c-0.571-0.833-1.212-1.558-1.899-2.177c1.62-4.512-4.316-9.541-8.137-5.32
		c-0.445,0.492-0.811,0.995-1.141,1.505c-6.591,1.778-6.049,12.246-4.641,19.081c0.011,0.111,0.023,0.224,0.034,0.334
		c0.484,4.973,1.152,9.949,2.077,14.859c0.637,3.385,1.661,6.669,4.606,8.747c0.682,0.481,1.413,0.836,2.166,1.081
		c5.181,3.092,8.696-0.504,10.407-5.1C-552.162,33.767-552.776,26.042-553.686,20.817z"/>
	<path style="clip-path:url(#XMLID_14_);fill:#FFF93E;" d="M-554.136,69.414c-0.034,0.001-0.067,0.001-0.1,0.001
		c-0.185-1.24-0.942-2.4-2.518-3.162c-3.662-1.77-7.295-2.664-11.356-2.91c-0.691-0.042-1.581,0.017-2.559,0.094
		c-2.827-0.561-5.877-1.387-8.766-1.484c-4.512-3.508-10.833,3.168-6.5,7.573c0.172,0.175,0.347,0.337,0.523,0.496
		c3.202,8.127,25.201,9.527,31.276,9.391C-547.711,79.27-547.688,69.269-554.136,69.414z"/>
	<path style="clip-path:url(#XMLID_14_);fill:#FFF93E;" d="M-558.623,130.741c-11.258-3.115-24.118-7.488-36.034-7.11
		c-0.828-0.102-1.655-0.212-2.485-0.306c-5.297-0.597-6.742,8-2.051,9.63c0.061,0.037,0.116,0.079,0.18,0.114
		c-0.724,0.428-1.433,0.941-2.128,1.565c-1.957,1.757-1.813,4.866-0.264,6.787c-0.014,0.088-0.024,0.177-0.033,0.266
		c-3.085,1.164-3.851,5.95-1.445,8.147c1.136,1.037,2.324,1.906,3.571,2.661c-4.49,1.148-5.502,8.866-0.195,9.666
		c8.655,1.305,17.31,2.61,25.965,3.915c4.372,0.659,7.087-3.705,6.057-6.83c0.081-0.104,0.164-0.205,0.241-0.318
		c0.448-0.657,0.896-1.313,1.343-1.97c0.769-1.128,0.856-2.553,0.468-3.861c1.812-1.128,2.414-3.333,1.869-5.348
		c2.636-1.516,3.348-5.061,1.957-7.315c0.551,0.046,1.102,0.095,1.656,0.129C-554.242,140.913-553.279,132.22-558.623,130.741z"/>
	<path style="opacity:0.45;clip-path:url(#XMLID_14_);fill:#FFFFFF;" d="M-564.59,78.078c-2.763,29.337-5.799,59.618-20.218,85.902
		c-3.097,5.645,5.535,10.697,8.635,5.047c15.31-27.908,18.649-59.791,21.583-90.949C-553.987,71.674-563.991,71.715-564.59,78.078z"
		/>
	<path style="opacity:0.45;clip-path:url(#XMLID_14_);fill:#FFFFFF;" d="M-555.727,59.441c-3.242,2.404-4.504-15.337-4.76-17.579
		c-0.856-7.509-1.712-15.017-2.568-22.526c-1.75-15.344-3.499-30.688-5.248-46.031c-0.168-1.473-0.844-2.602-1.767-3.394
		c0.184-0.713,0.229-1.479,0.045-2.287c-2.543-11.184-5.952-22.086-10.176-32.748c-4.154-10.486-8.685-21.003-7.337-32.521
		c0.7-5.983-8.056-6.308-9.759-1.107c-2.558-3.958-6.127-8.222-10.384-9.257c-15.543-3.781-5.095,25.327-3.73,30.943
		c1.924,7.913,3.92,15.808,5.99,23.683c1.87,7.116,6.34,16.527,3.464,23.751c-1.53,3.842,1.915,6.282,5.198,5.97
		c-0.031,0.298-0.043,0.609-0.021,0.942c1.104,16.628,1.764,33.282,1.924,49.946c0.139,14.512-0.351,29.136,6.178,42.502
		c0.497,1.016,1.174,1.691,1.936,2.092c0.21,0.802,0.594,1.583,1.13,2.254c-0.309,0.619-0.617,1.239-0.914,1.864
		c-0.523,1.092-1.033,2.19-1.53,3.293c-1.296,2.876-2.518,5.789-3.663,8.729c-2.307,5.922-4.255,11.982-5.839,18.137
		c-3.129,12.158-4.784,24.681-5.13,37.224c-0.178,6.437,9.822,6.433,10,0c0.432-15.64,3.126-31.046,8.133-45.877
		c2.447-7.247,6.314-13.901,8.856-21.046c1.609-4.523-0.03-8.541-3.8-9.717c-0.041-0.646-0.21-1.317-0.543-2
		c-6.188-12.665-4.666-27.698-4.86-41.375c-0.217-15.357-0.86-30.702-1.878-46.026c-0.213-3.2-2.83-4.809-5.335-4.808
		c2.041-5.671,0.873-11.484-0.632-17.186c-1.746-6.614-3.544-13.213-5.238-19.841c-1.695-6.627-3.338-13.267-4.929-19.92
		c-0.548-2.294-1.081-4.591-1.617-6.888c0.104,0.159,0.214,0.318,0.304,0.477c1.386,2.462,2.492,5.051,3.469,7.698
		c2.049,5.553,3.758,11.228,5.754,16.802c4.615,12.887,9.935,25.515,15.841,37.862c0.231,0.483,0.517,0.865,0.825,1.202
		c0.001,0.202,0.011,0.409,0.036,0.626c2.345,20.567,4.69,41.135,7.035,61.702c0.558,4.897,1.117,9.794,1.675,14.691
		c0.478,4.191,0.605,8.696,2.364,12.595c2.768,6.134,10.506,10.264,16.55,5.784C-545.567,64.286-550.549,55.602-555.727,59.441z"/>
	<use xlink:href="#XMLID_4_"  style="overflow:visible;fill:none;stroke:#000000;stroke-width:3;stroke-miterlimit:10;"/>
</g>
<g>
	<defs>
		<path id="XMLID_5_" d="M-827.167,175.833c-16.631-34.845-40.392-64.398-71.5-88.5c-21.21-12.913-43.777-22.802-68-29
			c-17.014-12.292-36.584-21.09-59-26c-45.908-22.844-89.404-42.42-127-54c-4.056-0.558-4.637,1.158-3.5,4
			c33.02,22.405,75.307,43.78,123.5,64.5c19.163,12.902,39.155,22.597,60,29c19.467,14.503,40.515,24.817,63.5,30
			c15.23,26.073,32.546,49.628,52.5,70C-846.01,185.695-836.265,184.639-827.167,175.833z"/>
	</defs>
	<use xlink:href="#XMLID_5_"  style="overflow:visible;fill:#28241B;"/>
	<clipPath id="XMLID_15_">
		<use xlink:href="#XMLID_5_"  style="overflow:visible;"/>
	</clipPath>
	<path style="clip-path:url(#XMLID_15_);fill:#FFF93E;" d="M-1029.341,22.671c-1.599-2.164-4.752-2.909-7.054-0.994
		c-1.93-0.671-4.118-0.163-5.324,2.314c-2.958,6.073-5.768,12.212-8.432,18.419c-1.521,3.544,1.203,8.316,4.956,7.621
		c1.295,2.833,5.069,4.352,7.973,1.588c6.654-6.334,11.372-14.128,14.014-22.918C-1021.942,24.489-1026.027,21.924-1029.341,22.671z
		"/>
	<path style="clip-path:url(#XMLID_15_);fill:#FFF93E;" d="M-974.23,44.476c-1.869-1.892-5.251-2.413-7.439-0.05
		c-0.558-0.532-1.212-0.957-1.906-1.229c-1.532-3.505-6.74-5.155-8.692-0.822c-1.806,4.01-5.061,7.118-7.917,10.404
		c-3.106,3.573-6.213,7.147-9.319,10.72c-2.525,2.905-1.252,6.58,1.417,7.922c-0.081,3.87,4.4,6.847,8.359,3.68
		c0.219-0.175,0.427-0.359,0.644-0.535c0.759,0.392,1.606,0.621,2.463,0.627c1.787,2.058,5.09,2.892,7.329,0.452
		c7.325-7.982,14.651-15.963,21.976-23.945C-963.02,47.021-969.858,40.049-974.23,44.476z"/>
	<path style="clip-path:url(#XMLID_15_);fill:#FFF93E;" d="M-903.74,76.683c-0.791-0.945-1.927-1.642-3.416-1.823
		c-2.577-0.314-5.154-0.628-7.73-0.942c-3.607-1.532-7.313-2.637-11.135-3.299c-1.449-0.846-2.659-1.904-3.195-3.295
		c-1.068-2.775-4.445-4.981-7.345-2.988c-4.547,3.124-5.081,8.486-2.532,12.485c1.869,6.578,10.605,9.24,16.408,10.921
		c6.912,2.003,15.012,3.132,21.158-1.463C-897.392,83.188-899.892,76.887-903.74,76.683z"/>
	<path style="clip-path:url(#XMLID_15_);fill:#FFF93E;" d="M-881.544,93.19c-1.031-0.802-2.441-1.102-4.141-0.479
		c-11.54,4.226-22.422,9.762-32.451,16.88c-4.533,3.218-1.334,10.21,3.044,9.495c1.263,2.082,3.782,3.256,6.434,1.487
		c9.258-6.177,18.517-12.354,27.775-18.531C-877.025,99.467-878.348,94.62-881.544,93.19z"/>
	<path style="clip-path:url(#XMLID_15_);fill:#FFF93E;" d="M-1132.131-20.678c-1.531-1.372-3.844-1.87-5.875-0.673
		c-1.421-1.654-3.412-2.75-5.74-2.733c-1.531,0.011-2.942,0.519-4.097,1.371c-0.358-0.432-0.811-0.828-1.383-1.165
		c-0.796-0.469-1.563-0.816-2.327-1.076c-2.229-3.423-8.175-3.956-8.857,0.975c-0.01,0.074-0.014,0.146-0.023,0.22
		c-0.677,0.877-0.964,2.02-0.91,3.183c-2.852,1.775-3.761,6.858-0.13,8.81c3.479,1.871,7.57,3.812,9.951,7.103
		c1.756,2.426,2.351,5.408,5.693,6.27c3.246,0.837,5.458-1.333,7.402-3.514c3.28-3.68,6.301-7.598,9.306-11.501
		C-1126.929-16.255-1129.226-19.679-1132.131-20.678z"/>
	<path style="opacity:0.45;clip-path:url(#XMLID_15_);fill:#FFFFFF;" d="M-818.386,186.206
		c-5.871-19.482-17.655-36.006-30.49-51.512c-14.628-17.671-29.814-34.901-44.745-52.315c-4.196-4.893-11.241,2.208-7.071,7.071
		c14.192,16.551,28.532,32.988,42.551,49.685c12.527,14.92,24.421,30.844,30.112,49.729
		C-826.177,195.011-816.522,192.392-818.386,186.206z"/>
	<path style="opacity:0.45;clip-path:url(#XMLID_15_);fill:#FFFFFF;" d="M-911.284,97.138c-14.298-2.143-27.962-6.561-40.715-13.385
		c-0.953-0.51-1.887-0.685-2.757-0.618c-8.005-13.849-25.23-19.593-39.572-25.341l-70.417-28.223
		c-0.242-0.097-0.476-0.167-0.706-0.226c-0.411-0.245-0.871-0.445-1.405-0.562c-3.25-0.715-6.481-1.135-9.704-1.272
		c-0.349-0.148-0.693-0.303-1.042-0.45c-1.496-0.63-2.785-0.458-3.784,0.18c-10.03-10.872-22.222-19.278-36.186-24.872
		c-7.908-3.168-16.21-5.553-23.56-9.96c-3.764-2.257-6.772-5.021-9.446-8.491c-0.243-0.316-0.5-0.626-0.762-0.931
		c1.61,0.367,3.209,0.815,4.776,1.207c13.771,3.445,27.18,8.174,40.07,14.116c5.805,2.676,10.891-5.94,5.047-8.635
		c-9.715-4.479-19.669-8.413-29.886-11.596c-8.623-2.686-19.102-6.875-28.281-5.563c-8.193,1.17-12.881,8.594-9.384,16.416
		c3.573,7.989,12.203,13.338,20.652,14.528c1.73,0.244,3.287-0.25,4.423-1.156c0.283,0.152,0.559,0.316,0.845,0.463
		c6.664,3.439,13.834,5.762,20.813,8.451c10.886,4.194,20.823,10.369,29.23,18.28c-4.665,2.4-1.974,10.629,3.844,9.2
		c1.326-0.326,2.648-0.573,3.969-0.776c0.941,1.16,1.864,2.337,2.747,3.551c2.891,3.976,8.71,1.918,9.483-1.624
		c19.365,8.547,38.089,18.264,57.268,27.229c4.716,2.205,9.568,4.232,14.626,5.508c5.349,1.349,10.921,1.811,16.168,3.57
		c9.868,3.31,17.458,11.11,24.646,18.285c2.072,2.068,5.214,1.633,7.067-0.088c12.39,6.145,25.56,10.374,39.277,12.429
		C-907.647,107.724-904.932,98.09-911.284,97.138z"/>
	<path style="opacity:0.45;clip-path:url(#XMLID_15_);fill:#FFFFFF;" d="M-925.555,58.828c-5.689-2.877-11.585-4.797-17.929-5.548
		c-5.024-0.595-9.889-0.018-14.833,0.327c-2.858-1.545-5.558-3.403-8.034-5.562c-2.754-2.401-6.241-1.143-7.835,1.166
		c-1.324-1.092-2.672-2.295-4.199-3.528c-4.468-3.609-9.378-6.499-14.629-8.812c-10.582-4.662-21.826-7.307-32.771-10.926
		c-12.39-4.097-23.784-10.3-33.714-18.797c-4.865-4.163-11.971,2.879-7.071,7.071c9.658,8.264,20.417,14.771,32.3,19.309
		c11.343,4.333,23.338,6.741,34.598,11.305c5.476,2.22,10.857,5.071,15.391,8.892c4.755,4.008,8.529,8.288,14.913,9.534
		c3.011,0.588,6.002,0.58,8.994,0.393c10.343,4.863,21.97,6.404,33.626,4.316C-922.557,67.216-921.859,60.696-925.555,58.828z"/>
	<use xlink:href="#XMLID_5_"  style="overflow:visible;fill:none;stroke:#000000;stroke-width:3;stroke-miterlimit:10;"/>
</g>
<ellipse cx="-344.417" cy="335.167" rx="5.083" ry="6.667"/>
<ellipse cx="-344.75" cy="351" rx="5.083" ry="6.667"/>
<ellipse cx="-350.167" cy="321" rx="2.415" ry="3.167"/>
<ellipse cx="-351.167" cy="365.833" rx="2.415" ry="3.167"/>
<linearGradient id="SVGID_6_" gradientUnits="userSpaceOnUse" x1="-374.3726" y1="301.7592" x2="-364.2486" y2="301.7592">
	<stop  offset="0" style="stop-color:#D7CBB5;stop-opacity:0"/>
	<stop  offset="1" style="stop-color:#172211;stop-opacity:0.5"/>
</linearGradient>
<path style="fill:none;stroke:url(#SVGID_6_);stroke-miterlimit:10;" d="M-374.021,304.313c2.619-2.596,6.053-4.357,9.689-4.969"/>
<linearGradient id="SVGID_7_" gradientUnits="userSpaceOnUse" x1="-370.582" y1="309.2776" x2="-363.9552" y2="309.2776">
	<stop  offset="0" style="stop-color:#D7CBB5;stop-opacity:0"/>
	<stop  offset="1" style="stop-color:#172211;stop-opacity:0.5"/>
</linearGradient>
<path style="fill:none;stroke:url(#SVGID_7_);stroke-miterlimit:10;" d="M-370.344,309.981c1.925-1.043,4.162-1.501,6.342-1.299"/>
<linearGradient id="SVGID_8_" gradientUnits="userSpaceOnUse" x1="-369.7274" y1="318.092" x2="-365.198" y2="318.092">
	<stop  offset="0" style="stop-color:#D7CBB5;stop-opacity:0"/>
	<stop  offset="1" style="stop-color:#172211;stop-opacity:0.5"/>
</linearGradient>
<path style="fill:none;stroke:url(#SVGID_8_);stroke-miterlimit:10;" d="M-369.664,318.021c1.447-0.185,2.929-0.1,4.346,0.251"/>
<linearGradient id="SVGID_9_" gradientUnits="userSpaceOnUse" x1="-369.8316" y1="323.3417" x2="-363.2135" y2="323.3417">
	<stop  offset="0" style="stop-color:#D7CBB5;stop-opacity:0"/>
	<stop  offset="1" style="stop-color:#172211;stop-opacity:0.5"/>
</linearGradient>
<path style="fill:none;stroke:url(#SVGID_9_);stroke-miterlimit:10;" d="M-369.657,323.692c2.009-0.747,4.244-0.872,6.323-0.355"/>
<linearGradient id="SVGID_10_" gradientUnits="userSpaceOnUse" x1="-369.4395" y1="329.1262" x2="-364.2435" y2="329.1262">
	<stop  offset="0" style="stop-color:#D7CBB5;stop-opacity:0"/>
	<stop  offset="1" style="stop-color:#172211;stop-opacity:0.5"/>
</linearGradient>
<path style="fill:none;stroke:url(#SVGID_10_);stroke-miterlimit:10;" d="M-369.341,329.631c1.666-0.336,3.332-0.673,4.998-1.009"/>
<linearGradient id="SVGID_11_" gradientUnits="userSpaceOnUse" x1="-369.843" y1="337.8974" x2="-362.9205" y2="337.8974">
	<stop  offset="0" style="stop-color:#D7CBB5;stop-opacity:0"/>
	<stop  offset="1" style="stop-color:#172211;stop-opacity:0.5"/>
</linearGradient>
<path style="fill:none;stroke:url(#SVGID_11_);stroke-miterlimit:10;" d="M-369.668,338.33c2.116-0.791,4.438-1.025,6.67-0.674"/>
<linearGradient id="SVGID_12_" gradientUnits="userSpaceOnUse" x1="-368.8264" y1="346.0857" x2="-362.0629" y2="346.0857">
	<stop  offset="0" style="stop-color:#D7CBB5;stop-opacity:0"/>
	<stop  offset="1" style="stop-color:#172211;stop-opacity:0.5"/>
</linearGradient>
<path style="fill:none;stroke:url(#SVGID_12_);stroke-miterlimit:10;" d="M-368.655,346.031c2.061-0.75,4.456-0.517,6.334,0.616"/>
<linearGradient id="SVGID_13_" gradientUnits="userSpaceOnUse" x1="-369.4753" y1="353.6438" x2="-362.7621" y2="353.6438">
	<stop  offset="0" style="stop-color:#D7CBB5;stop-opacity:0"/>
	<stop  offset="1" style="stop-color:#172211;stop-opacity:0.5"/>
</linearGradient>
<path style="fill:none;stroke:url(#SVGID_13_);stroke-miterlimit:10;" d="M-369.329,352.32c2.195,0.671,4.318,1.574,6.324,2.689"/>
<linearGradient id="SVGID_14_" gradientUnits="userSpaceOnUse" x1="-369.08" y1="361.8479" x2="-361.9041" y2="361.8479">
	<stop  offset="0" style="stop-color:#D7CBB5;stop-opacity:0"/>
	<stop  offset="1" style="stop-color:#172211;stop-opacity:0.5"/>
</linearGradient>
<path style="fill:none;stroke:url(#SVGID_14_);stroke-miterlimit:10;" d="M-369.011,358.713c1.687-0.234,3.36,0.735,4.428,2.062
	c1.068,1.326,1.647,2.97,2.206,4.579"/>
<linearGradient id="SVGID_15_" gradientUnits="userSpaceOnUse" x1="-369.9281" y1="367.713" x2="-362.6064" y2="367.713">
	<stop  offset="0" style="stop-color:#D7CBB5;stop-opacity:0"/>
	<stop  offset="1" style="stop-color:#172211;stop-opacity:0.5"/>
</linearGradient>
<path style="fill:none;stroke:url(#SVGID_15_);stroke-miterlimit:10;" d="M-369.436,363.993c0.576,3.272,5.384,4.203,6.351,7.382"/>
<linearGradient id="SVGID_16_" gradientUnits="userSpaceOnUse" x1="-372.226" y1="373.9424" x2="-363.2037" y2="373.9424">
	<stop  offset="0" style="stop-color:#D7CBB5;stop-opacity:0"/>
	<stop  offset="1" style="stop-color:#172211;stop-opacity:0.5"/>
</linearGradient>
<path style="fill:none;stroke:url(#SVGID_16_);stroke-miterlimit:10;" d="M-371.829,371.124c2.088,2.734,5.159,4.7,8.515,5.453"/>
<linearGradient id="SVGID_17_" gradientUnits="userSpaceOnUse" x1="-373.0825" y1="381.3877" x2="-366.07" y2="381.3877">
	<stop  offset="0" style="stop-color:#D7CBB5;stop-opacity:0"/>
	<stop  offset="1" style="stop-color:#172211;stop-opacity:0.5"/>
</linearGradient>
<path style="fill:none;stroke:url(#SVGID_17_);stroke-miterlimit:10;" d="M-372.701,378.695c1.792,2.119,3.966,3.914,6.386,5.271"/>
<linearGradient id="SVGID_18_" gradientUnits="userSpaceOnUse" x1="-378.9372" y1="384.7892" x2="-369.6829" y2="384.7892">
	<stop  offset="0" style="stop-color:#D7CBB5;stop-opacity:0"/>
	<stop  offset="1" style="stop-color:#172211;stop-opacity:0.5"/>
</linearGradient>
<path style="fill:none;stroke:url(#SVGID_18_);stroke-miterlimit:10;" d="M-378.17,382.626c0.132-0.123-0.234-0.233-0.264-0.055
	c-0.03,0.178,0.157,0.309,0.318,0.391c2.735,1.398,5.471,2.796,8.206,4.194"/>
<linearGradient id="SVGID_19_" gradientUnits="userSpaceOnUse" x1="-381.4942" y1="387.949" x2="-379.2549" y2="387.949">
	<stop  offset="0" style="stop-color:#D7CBB5;stop-opacity:0"/>
	<stop  offset="1" style="stop-color:#172211;stop-opacity:0.5"/>
</linearGradient>
<path style="fill:none;stroke:url(#SVGID_19_);stroke-miterlimit:10;" d="M-380.997,386c0.131,1.307,0.592,2.58,1.328,3.669"/>
<linearGradient id="SVGID_20_" gradientUnits="userSpaceOnUse" x1="-387.1666" y1="389.7823" x2="-385.1344" y2="389.7823">
	<stop  offset="0" style="stop-color:#D7CBB5;stop-opacity:0"/>
	<stop  offset="1" style="stop-color:#172211;stop-opacity:0.5"/>
</linearGradient>
<path style="fill:none;stroke:url(#SVGID_20_);stroke-miterlimit:10;" d="M-386.683,386.338c0.596,2.286,0.948,4.635,1.049,6.994"/>
<linearGradient id="SVGID_21_" gradientUnits="userSpaceOnUse" x1="-389.7928" y1="393.7636" x2="-387.5034" y2="393.7636">
	<stop  offset="0" style="stop-color:#D7CBB5;stop-opacity:0"/>
	<stop  offset="1" style="stop-color:#172211;stop-opacity:0.5"/>
</linearGradient>
<path style="fill:none;stroke:url(#SVGID_21_);stroke-miterlimit:10;" d="M-389.333,391.333c0.683,1.591,1.134,3.281,1.333,5"/>
<linearGradient id="SVGID_22_" gradientUnits="userSpaceOnUse" x1="-394.6617" y1="377.4969" x2="-388.3328" y2="377.4969">
	<stop  offset="0" style="stop-color:#D7CBB5;stop-opacity:0"/>
	<stop  offset="1" style="stop-color:#172211;stop-opacity:0.5"/>
</linearGradient>
<path style="fill:none;stroke:url(#SVGID_22_);stroke-miterlimit:10;" d="M-394.331,374.997c1.889,1.666,3.778,3.333,5.667,4.999"/>
<linearGradient id="SVGID_23_" gradientUnits="userSpaceOnUse" x1="-388.7512" y1="374.3389" x2="-384.2651" y2="374.3389">
	<stop  offset="0" style="stop-color:#D7CBB5;stop-opacity:0"/>
	<stop  offset="1" style="stop-color:#172211;stop-opacity:0.5"/>
</linearGradient>
<path style="fill:none;stroke:url(#SVGID_23_);stroke-miterlimit:10;" d="M-388.339,371.67c1.22,1.779,2.441,3.558,3.661,5.337"/>
<linearGradient id="SVGID_24_" gradientUnits="userSpaceOnUse" x1="-385.6926" y1="367.2994" x2="-376.7724" y2="367.2994">
	<stop  offset="0" style="stop-color:#D7CBB5;stop-opacity:0"/>
	<stop  offset="1" style="stop-color:#172211;stop-opacity:0.5"/>
</linearGradient>
<path style="fill:none;stroke:url(#SVGID_24_);stroke-miterlimit:10;" d="M-385.668,366.317c2.999-0.151,6.036,0.569,8.649,2.05"/>
<linearGradient id="SVGID_25_" gradientUnits="userSpaceOnUse" x1="-382.6656" y1="360.2747" x2="-375.9836" y2="360.2747">
	<stop  offset="0" style="stop-color:#D7CBB5;stop-opacity:0"/>
	<stop  offset="1" style="stop-color:#172211;stop-opacity:0.5"/>
</linearGradient>
<path style="fill:none;stroke:url(#SVGID_25_);stroke-miterlimit:10;" d="M-382.318,361.682c1.682-1.627,3.98-2.6,6.318-2.675"/>
<linearGradient id="SVGID_26_" gradientUnits="userSpaceOnUse" x1="-381.3513" y1="350.1176" x2="-376.3453" y2="350.1176">
	<stop  offset="0" style="stop-color:#D7CBB5;stop-opacity:0"/>
	<stop  offset="1" style="stop-color:#172211;stop-opacity:0.5"/>
</linearGradient>
<path style="fill:none;stroke:url(#SVGID_26_);stroke-miterlimit:10;" d="M-380.762,352.419c-0.376-1.012,0.503-2.057,1.426-2.616
	c0.924-0.559,2.029-0.976,2.554-1.919"/>
<linearGradient id="SVGID_27_" gradientUnits="userSpaceOnUse" x1="-382.4455" y1="341.0364" x2="-377.7389" y2="341.0364">
	<stop  offset="0" style="stop-color:#D7CBB5;stop-opacity:0"/>
	<stop  offset="1" style="stop-color:#172211;stop-opacity:0.5"/>
</linearGradient>
<path style="fill:none;stroke:url(#SVGID_27_);stroke-miterlimit:10;" d="M-381.973,343.676c0.706-2.056,2.129-3.857,3.966-5.019"/>
<linearGradient id="SVGID_28_" gradientUnits="userSpaceOnUse" x1="-382.8512" y1="329.0406" x2="-377.322" y2="329.0406">
	<stop  offset="0" style="stop-color:#D7CBB5;stop-opacity:0"/>
	<stop  offset="1" style="stop-color:#172211;stop-opacity:0.5"/>
</linearGradient>
<path style="fill:none;stroke:url(#SVGID_28_);stroke-miterlimit:10;" d="M-382.358,332.996c0.52-3.015,2.262-5.801,4.744-7.59"/>
<linearGradient id="SVGID_29_" gradientUnits="userSpaceOnUse" x1="-383.1754" y1="315.9265" x2="-375.9166" y2="315.9265">
	<stop  offset="0" style="stop-color:#D7CBB5;stop-opacity:0"/>
	<stop  offset="1" style="stop-color:#172211;stop-opacity:0.5"/>
</linearGradient>
<path style="fill:none;stroke:url(#SVGID_29_);stroke-miterlimit:10;" d="M-382.7,321.989c1.403-4.325,3.578-8.398,6.39-11.97"/>
<linearGradient id="SVGID_30_" gradientUnits="userSpaceOnUse" x1="-383.8424" y1="309.0142" x2="-380.6224" y2="309.0142">
	<stop  offset="0" style="stop-color:#D7CBB5;stop-opacity:0"/>
	<stop  offset="1" style="stop-color:#172211;stop-opacity:0.5"/>
</linearGradient>
<path style="fill:none;stroke:url(#SVGID_30_);stroke-miterlimit:10;" d="M-383.332,312.333c-0.116-2.307,0.754-4.647,2.348-6.318"
	/>
<linearGradient id="SVGID_31_" gradientUnits="userSpaceOnUse" x1="-389.9627" y1="303.8405" x2="-384.3437" y2="303.8405">
	<stop  offset="0" style="stop-color:#D7CBB5;stop-opacity:0"/>
	<stop  offset="1" style="stop-color:#172211;stop-opacity:0.5"/>
</linearGradient>
<path style="fill:none;stroke:url(#SVGID_31_);stroke-miterlimit:10;" d="M-389.002,308.383c-0.979-1.503-0.256-3.551,0.853-4.961
	c1.109-1.41,2.59-2.56,3.353-4.184"/>
<linearGradient id="SVGID_32_" gradientUnits="userSpaceOnUse" x1="-398.1789" y1="301.8803" x2="-393.8993" y2="301.8803">
	<stop  offset="0" style="stop-color:#D7CBB5;stop-opacity:0"/>
	<stop  offset="1" style="stop-color:#172211;stop-opacity:0.5"/>
</linearGradient>
<path style="fill:none;stroke:url(#SVGID_32_);stroke-miterlimit:10;" d="M-396.92,305.009c-0.996-0.877-0.942-2.524-0.243-3.652
	c0.698-1.128,1.871-1.861,3.003-2.553"/>
<linearGradient id="SVGID_33_" gradientUnits="userSpaceOnUse" x1="-403.1302" y1="304.1738" x2="-401.1329" y2="304.1738">
	<stop  offset="0" style="stop-color:#D7CBB5;stop-opacity:0"/>
	<stop  offset="1" style="stop-color:#172211;stop-opacity:0.5"/>
</linearGradient>
<path style="fill:none;stroke:url(#SVGID_33_);stroke-miterlimit:10;" d="M-402.64,306.672c0.339-1.665,0.678-3.331,1.017-4.996"/>
<linearGradient id="SVGID_34_" gradientUnits="userSpaceOnUse" x1="-414.1595" y1="301.4958" x2="-410.1416" y2="301.4958">
	<stop  offset="0" style="stop-color:#D7CBB5;stop-opacity:0"/>
	<stop  offset="1" style="stop-color:#172211;stop-opacity:0.5"/>
</linearGradient>
<path style="fill:none;stroke:url(#SVGID_34_);stroke-miterlimit:10;" d="M-410.625,307.323c-1.017-3.884-2.034-7.769-3.051-11.653"
	/>
<linearGradient id="SVGID_35_" gradientUnits="userSpaceOnUse" x1="-419.4525" y1="305.4496" x2="-410.6642" y2="305.4496">
	<stop  offset="0" style="stop-color:#D7CBB5;stop-opacity:0"/>
	<stop  offset="1" style="stop-color:#172211;stop-opacity:0.5"/>
</linearGradient>
<path style="fill:none;stroke:url(#SVGID_35_);stroke-miterlimit:10;" d="M-416.59,313.554c-1.244-1.171-2.597-2.639-2.328-4.327
	c0.109-0.686,0.482-1.296,0.847-1.887c2.129-3.443,4.539-6.855,7.011-10.053"/>
<linearGradient id="SVGID_36_" gradientUnits="userSpaceOnUse" x1="-425.9677" y1="307.8073" x2="-422.4295" y2="307.8073">
	<stop  offset="0" style="stop-color:#D7CBB5;stop-opacity:0"/>
	<stop  offset="1" style="stop-color:#172211;stop-opacity:0.5"/>
</linearGradient>
<path style="fill:none;stroke:url(#SVGID_36_);stroke-miterlimit:10;" d="M-425.501,300.359c0.55,1.434,0.361,3.027,0.351,4.564
	c-0.02,3.08,1.931,4.305,1.14,7.408c-0.293-4.022,0.027-7.085,1.098-10.973"/>
<linearGradient id="SVGID_37_" gradientUnits="userSpaceOnUse" x1="-415.3011" y1="309.3195" x2="-411.9773" y2="309.3195">
	<stop  offset="0" style="stop-color:#D7CBB5;stop-opacity:0"/>
	<stop  offset="1" style="stop-color:#172211;stop-opacity:0.5"/>
</linearGradient>
<path style="fill:none;stroke:url(#SVGID_37_);stroke-miterlimit:10;" d="M-413.993,313.329c-1.583-2.521-0.756-6.249,1.744-7.865"
	/>
<linearGradient id="SVGID_38_" gradientUnits="userSpaceOnUse" x1="-415.1156" y1="313.8712" x2="-402.7079" y2="313.8712">
	<stop  offset="0" style="stop-color:#D7CBB5;stop-opacity:0"/>
	<stop  offset="1" style="stop-color:#172211;stop-opacity:0.5"/>
</linearGradient>
<path style="fill:none;stroke:url(#SVGID_38_);stroke-miterlimit:10;" d="M-408.333,310c-1.444,1.889-2.889,3.778-4.333,5.667
	c2.778-2,6.889-2.667,9.667-4.667"/>
<linearGradient id="SVGID_39_" gradientUnits="userSpaceOnUse" x1="-406" y1="320.6667" x2="-397.6667" y2="320.6667">
	<stop  offset="0" style="stop-color:#D7CBB5;stop-opacity:0"/>
	<stop  offset="1" style="stop-color:#172211;stop-opacity:0.5"/>
</linearGradient>
<path style="fill:none;stroke:url(#SVGID_39_);stroke-miterlimit:10;" d="M-397.667,320.667c-2.778,0-5.556,0-8.333,0"/>
<linearGradient id="SVGID_40_" gradientUnits="userSpaceOnUse" x1="-408.4985" y1="325.1667" x2="-401.5015" y2="325.1667">
	<stop  offset="0" style="stop-color:#D7CBB5;stop-opacity:0"/>
	<stop  offset="1" style="stop-color:#172211;stop-opacity:0.5"/>
</linearGradient>
<path style="fill:none;stroke:url(#SVGID_40_);stroke-miterlimit:10;" d="M-408.333,324c2.222,0.778,4.444,1.556,6.667,2.333"/>
<linearGradient id="SVGID_41_" gradientUnits="userSpaceOnUse" x1="-410.6505" y1="332.3259" x2="-400.7094" y2="332.3259">
	<stop  offset="0" style="stop-color:#D7CBB5;stop-opacity:0"/>
	<stop  offset="1" style="stop-color:#172211;stop-opacity:0.5"/>
</linearGradient>
<path style="fill:none;stroke:url(#SVGID_41_);stroke-miterlimit:10;" d="M-401,332.667c-2.111-0.778-4.222-1.556-6.333-2.333
	c1.556,1.111,4.778,4.222,6.333,5.333"/>
<linearGradient id="SVGID_42_" gradientUnits="userSpaceOnUse" x1="-405.0156" y1="341.7844" x2="-401.2014" y2="341.7844">
	<stop  offset="0" style="stop-color:#D7CBB5;stop-opacity:0"/>
	<stop  offset="1" style="stop-color:#172211;stop-opacity:0.5"/>
</linearGradient>
<path style="fill:none;stroke:url(#SVGID_42_);stroke-miterlimit:10;" d="M-404.633,339.972c1.016,1.208,2.033,2.417,3.049,3.626"/>
<linearGradient id="SVGID_43_" gradientUnits="userSpaceOnUse" x1="-404.4" y1="347" x2="-400.6" y2="347">
	<stop  offset="0" style="stop-color:#D7CBB5;stop-opacity:0"/>
	<stop  offset="1" style="stop-color:#172211;stop-opacity:0.5"/>
</linearGradient>
<path style="fill:none;stroke:url(#SVGID_43_);stroke-miterlimit:10;" d="M-404,345c1,1.333,2,2.667,3,4"/>
<linearGradient id="SVGID_44_" gradientUnits="userSpaceOnUse" x1="-405.9959" y1="352.5" x2="-402.6707" y2="352.5">
	<stop  offset="0" style="stop-color:#D7CBB5;stop-opacity:0"/>
	<stop  offset="1" style="stop-color:#172211;stop-opacity:0.5"/>
</linearGradient>
<path style="fill:none;stroke:url(#SVGID_44_);stroke-miterlimit:10;" d="M-405.667,351.333c0.889,0.778,1.778,1.556,2.667,2.333"/>
<linearGradient id="SVGID_45_" gradientUnits="userSpaceOnUse" x1="-408.4214" y1="358.225" x2="-403.0125" y2="358.225">
	<stop  offset="0" style="stop-color:#D7CBB5;stop-opacity:0"/>
	<stop  offset="1" style="stop-color:#172211;stop-opacity:0.5"/>
</linearGradient>
<path style="fill:none;stroke:url(#SVGID_45_);stroke-miterlimit:10;" d="M-407.981,354.656c1.327,2.476,2.858,4.843,4.572,7.068"/>
<linearGradient id="SVGID_46_" gradientUnits="userSpaceOnUse" x1="-408.8629" y1="364.1153" x2="-406.1996" y2="364.1153">
	<stop  offset="0" style="stop-color:#D7CBB5;stop-opacity:0"/>
	<stop  offset="1" style="stop-color:#172211;stop-opacity:0.5"/>
</linearGradient>
<path style="fill:none;stroke:url(#SVGID_46_);stroke-miterlimit:10;" d="M-408.233,358.664c-0.228,3.653-0.385,7.594,1.615,10.66"
	/>
<linearGradient id="SVGID_47_" gradientUnits="userSpaceOnUse" x1="-410.4669" y1="373.9849" x2="-402.3109" y2="373.9849">
	<stop  offset="0" style="stop-color:#D7CBB5;stop-opacity:0"/>
	<stop  offset="1" style="stop-color:#172211;stop-opacity:0.5"/>
</linearGradient>
<path style="fill:none;stroke:url(#SVGID_47_);stroke-miterlimit:10;" d="M-409.993,369.325c0.483,1.429,0.359,3.077,1.188,4.337
	c1.474,2.241,5.391,2.417,6.008,5.027"/>
<linearGradient id="SVGID_48_" gradientUnits="userSpaceOnUse" x1="-413.5491" y1="376.8765" x2="-405.499" y2="376.8765">
	<stop  offset="0" style="stop-color:#D7CBB5;stop-opacity:0"/>
	<stop  offset="1" style="stop-color:#172211;stop-opacity:0.5"/>
</linearGradient>
<path style="fill:none;stroke:url(#SVGID_48_);stroke-miterlimit:10;" d="M-413.077,370.027c1.691,4.849,4.119,9.44,7.176,13.566"/>
<linearGradient id="SVGID_49_" gradientUnits="userSpaceOnUse" x1="-422.8206" y1="379.0705" x2="-419.4677" y2="379.0705">
	<stop  offset="0" style="stop-color:#D7CBB5;stop-opacity:0"/>
	<stop  offset="1" style="stop-color:#172211;stop-opacity:0.5"/>
</linearGradient>
<path style="fill:none;stroke:url(#SVGID_49_);stroke-miterlimit:10;" d="M-422.343,381.997c0.556-1.783,0.993-3.603,1.307-5.444
	c0.453-0.108,0.94-0.064,1.366,0.125"/>
<linearGradient id="SVGID_50_" gradientUnits="userSpaceOnUse" x1="-425.9211" y1="380.9272" x2="-423.5366" y2="380.9272">
	<stop  offset="0" style="stop-color:#D7CBB5;stop-opacity:0"/>
	<stop  offset="1" style="stop-color:#172211;stop-opacity:0.5"/>
</linearGradient>
<path style="fill:none;stroke:url(#SVGID_50_);stroke-miterlimit:10;" d="M-423.995,376.669c-1.175,2.711-1.639,5.726-1.335,8.664"
	/>
<linearGradient id="SVGID_51_" gradientUnits="userSpaceOnUse" x1="-423.0774" y1="367.6519" x2="-417.0099" y2="367.6519">
	<stop  offset="0" style="stop-color:#D7CBB5;stop-opacity:0"/>
	<stop  offset="1" style="stop-color:#172211;stop-opacity:0.5"/>
</linearGradient>
<path style="fill:none;stroke:url(#SVGID_51_);stroke-miterlimit:10;" d="M-422.578,363.011c0.156,3.59,2.222,7.041,5.313,8.874"/>
<linearGradient id="SVGID_52_" gradientUnits="userSpaceOnUse" x1="-419.6745" y1="358.3333" x2="-413.9922" y2="358.3333">
	<stop  offset="0" style="stop-color:#D7CBB5;stop-opacity:0"/>
	<stop  offset="1" style="stop-color:#172211;stop-opacity:0.5"/>
</linearGradient>
<path style="fill:none;stroke:url(#SVGID_52_);stroke-miterlimit:10;" d="M-419.333,356c1.667,1.556,3.333,3.111,5,4.667"/>
<linearGradient id="SVGID_53_" gradientUnits="userSpaceOnUse" x1="-419.999" y1="348.2173" x2="-412.424" y2="348.2173">
	<stop  offset="0" style="stop-color:#D7CBB5;stop-opacity:0"/>
	<stop  offset="1" style="stop-color:#172211;stop-opacity:0.5"/>
</linearGradient>
<path style="fill:none;stroke:url(#SVGID_53_);stroke-miterlimit:10;" d="M-419.721,347.747c2.066,1.384,4.997,1.32,7.001-0.153"/>
<linearGradient id="SVGID_54_" gradientUnits="userSpaceOnUse" x1="-417.8479" y1="339.5" x2="-411.4854" y2="339.5">
	<stop  offset="0" style="stop-color:#D7CBB5;stop-opacity:0"/>
	<stop  offset="1" style="stop-color:#172211;stop-opacity:0.5"/>
</linearGradient>
<path style="fill:none;stroke:url(#SVGID_54_);stroke-miterlimit:10;" d="M-417.667,340.667c2-0.778,4-1.556,6-2.333"/>
<linearGradient id="SVGID_55_" gradientUnits="userSpaceOnUse" x1="-422.1783" y1="331.4828" x2="-416.3033" y2="331.4828">
	<stop  offset="0" style="stop-color:#D7CBB5;stop-opacity:0"/>
	<stop  offset="1" style="stop-color:#172211;stop-opacity:0.5"/>
</linearGradient>
<path style="fill:none;stroke:url(#SVGID_55_);stroke-miterlimit:10;" d="M-420.73,334.448c-0.538,0.159-1.028-0.5-0.937-1.054
	s0.533-0.974,0.95-1.35c1.36-1.226,2.72-2.452,4.079-3.679"/>
<linearGradient id="SVGID_56_" gradientUnits="userSpaceOnUse" x1="-426.3134" y1="325.2203" x2="-420.0677" y2="325.2203">
	<stop  offset="0" style="stop-color:#D7CBB5;stop-opacity:0"/>
	<stop  offset="1" style="stop-color:#172211;stop-opacity:0.5"/>
</linearGradient>
<path style="fill:none;stroke:url(#SVGID_56_);stroke-miterlimit:10;" d="M-423.056,331.665c-0.542-2.223,0.276-4.554,1.359-6.569
	c1.083-2.016,0.458-4.075,1.153-6.255c-0.619,1.573-2.23,2.469-3.509,3.574s-2.326,2.993-1.419,4.42"/>
<linearGradient id="SVGID_57_" gradientUnits="userSpaceOnUse" x1="-412.7349" y1="321.8476" x2="-409.5536" y2="321.8476">
	<stop  offset="0" style="stop-color:#D7CBB5;stop-opacity:0"/>
	<stop  offset="1" style="stop-color:#172211;stop-opacity:0.5"/>
</linearGradient>
<path style="fill:none;stroke:url(#SVGID_57_);stroke-miterlimit:10;" d="M-412.313,323.679c0.779-1.221,1.559-2.442,2.338-3.663"/>
<linearGradient id="SVGID_58_" gradientUnits="userSpaceOnUse" x1="-400.9955" y1="311.4666" x2="-393.7507" y2="311.4666">
	<stop  offset="0" style="stop-color:#D7CBB5;stop-opacity:0"/>
	<stop  offset="1" style="stop-color:#172211;stop-opacity:0.5"/>
</linearGradient>
<path style="fill:none;stroke:url(#SVGID_58_);stroke-miterlimit:10;" d="M-400.656,314.012c2.041-1.891,4.27-3.579,6.644-5.031"/>
<linearGradient id="SVGID_59_" gradientUnits="userSpaceOnUse" x1="-393.6743" y1="314.9826" x2="-387.5406" y2="314.9826">
	<stop  offset="0" style="stop-color:#D7CBB5;stop-opacity:0"/>
	<stop  offset="1" style="stop-color:#172211;stop-opacity:0.5"/>
</linearGradient>
<path style="fill:none;stroke:url(#SVGID_59_);stroke-miterlimit:10;" d="M-393.228,318.053c1.222-2.424,3.12-4.504,5.422-5.942"/>
<linearGradient id="SVGID_60_" gradientUnits="userSpaceOnUse" x1="-394.871" y1="319.9699" x2="-388.1545" y2="319.9699">
	<stop  offset="0" style="stop-color:#D7CBB5;stop-opacity:0"/>
	<stop  offset="1" style="stop-color:#172211;stop-opacity:0.5"/>
</linearGradient>
<path style="fill:none;stroke:url(#SVGID_60_);stroke-miterlimit:10;" d="M-394.676,321.312c2.109-0.895,4.217-1.789,6.326-2.684"/>
<linearGradient id="SVGID_61_" gradientUnits="userSpaceOnUse" x1="-394.3333" y1="326" x2="-387.3333" y2="326">
	<stop  offset="0" style="stop-color:#D7CBB5;stop-opacity:0"/>
	<stop  offset="1" style="stop-color:#172211;stop-opacity:0.5"/>
</linearGradient>
<path style="fill:none;stroke:url(#SVGID_61_);stroke-miterlimit:10;" d="M-394.333,326c2.333,0,4.667,0,7,0"/>
<linearGradient id="SVGID_62_" gradientUnits="userSpaceOnUse" x1="-395.1581" y1="331.3333" x2="-388.8419" y2="331.3333">
	<stop  offset="0" style="stop-color:#D7CBB5;stop-opacity:0"/>
	<stop  offset="1" style="stop-color:#172211;stop-opacity:0.5"/>
</linearGradient>
<path style="fill:none;stroke:url(#SVGID_62_);stroke-miterlimit:10;" d="M-395,330.333c2,0.667,4,1.333,6,2"/>
<linearGradient id="SVGID_63_" gradientUnits="userSpaceOnUse" x1="-394.7604" y1="337.745" x2="-389.29" y2="337.745">
	<stop  offset="0" style="stop-color:#D7CBB5;stop-opacity:0"/>
	<stop  offset="1" style="stop-color:#172211;stop-opacity:0.5"/>
</linearGradient>
<path style="fill:none;stroke:url(#SVGID_63_);stroke-miterlimit:10;" d="M-394.09,336.024c-0.58,0.901,0.424,2.046,1.449,2.358
	c1.025,0.313,2.21,0.281,3.028,0.973"/>
<linearGradient id="SVGID_64_" gradientUnits="userSpaceOnUse" x1="-394.071" y1="343.1667" x2="-390.5956" y2="343.1667">
	<stop  offset="0" style="stop-color:#D7CBB5;stop-opacity:0"/>
	<stop  offset="1" style="stop-color:#172211;stop-opacity:0.5"/>
</linearGradient>
<path style="fill:none;stroke:url(#SVGID_64_);stroke-miterlimit:10;" d="M-393.667,341.333c0.889,1.222,1.778,2.444,2.667,3.667"/>
<linearGradient id="SVGID_65_" gradientUnits="userSpaceOnUse" x1="-395.418" y1="350.4012" x2="-390.3714" y2="350.4012">
	<stop  offset="0" style="stop-color:#D7CBB5;stop-opacity:0"/>
	<stop  offset="1" style="stop-color:#172211;stop-opacity:0.5"/>
</linearGradient>
<path style="fill:none;stroke:url(#SVGID_65_);stroke-miterlimit:10;" d="M-394.996,347.997c1.143,1.803,2.616,3.395,4.324,4.676"/>
<linearGradient id="SVGID_66_" gradientUnits="userSpaceOnUse" x1="-395.011" y1="358.5096" x2="-390.9694" y2="358.5096">
	<stop  offset="0" style="stop-color:#D7CBB5;stop-opacity:0"/>
	<stop  offset="1" style="stop-color:#172211;stop-opacity:0.5"/>
</linearGradient>
<path style="fill:none;stroke:url(#SVGID_66_);stroke-miterlimit:10;" d="M-394.333,356c-0.174,1.508-0.22,3.031-0.138,4.547
	c1.157-0.071,2.314-0.142,3.472-0.213"/>
<linearGradient id="SVGID_67_" gradientUnits="userSpaceOnUse" x1="-401.499" y1="362.0695" x2="-390.5247" y2="362.0695">
	<stop  offset="0" style="stop-color:#D7CBB5;stop-opacity:0"/>
	<stop  offset="1" style="stop-color:#172211;stop-opacity:0.5"/>
</linearGradient>
<path style="fill:none;stroke:url(#SVGID_67_);stroke-miterlimit:10;" d="M-401.025,360.293c0.604,1.817,2.729,2.645,4.639,2.788
	c1.909,0.143,3.886-0.152,5.704,0.448"/>
<linearGradient id="SVGID_68_" gradientUnits="userSpaceOnUse" x1="-402.6458" y1="370.3656" x2="-397.7924" y2="370.3656">
	<stop  offset="0" style="stop-color:#D7CBB5;stop-opacity:0"/>
	<stop  offset="1" style="stop-color:#172211;stop-opacity:0.5"/>
</linearGradient>
<path style="fill:none;stroke:url(#SVGID_68_);stroke-miterlimit:10;" d="M-402.333,369c1.327,1.063,2.787,1.961,4.333,2.667"/>
<linearGradient id="SVGID_69_" gradientUnits="userSpaceOnUse" x1="-399.5016" y1="381.9292" x2="-394.8446" y2="381.9292">
	<stop  offset="0" style="stop-color:#D7CBB5;stop-opacity:0"/>
	<stop  offset="1" style="stop-color:#172211;stop-opacity:0.5"/>
</linearGradient>
<path style="fill:none;stroke:url(#SVGID_69_);stroke-miterlimit:10;" d="M-399.294,381.42c1.45-0.663,3.378,0.096,3.987,1.569"/>
<linearGradient id="SVGID_70_" gradientUnits="userSpaceOnUse" x1="-403.8366" y1="388.1019" x2="-397.778" y2="388.1019">
	<stop  offset="0" style="stop-color:#D7CBB5;stop-opacity:0"/>
	<stop  offset="1" style="stop-color:#172211;stop-opacity:0.5"/>
</linearGradient>
<path style="fill:none;stroke:url(#SVGID_70_);stroke-miterlimit:10;" d="M-403.65,386.959c1.895,0.762,3.79,1.524,5.685,2.287"/>
<linearGradient id="SVGID_71_" gradientUnits="userSpaceOnUse" x1="-404.2713" y1="391.9528" x2="-396.2912" y2="391.9528">
	<stop  offset="0" style="stop-color:#D7CBB5;stop-opacity:0"/>
	<stop  offset="1" style="stop-color:#172211;stop-opacity:0.5"/>
</linearGradient>
<path style="fill:none;stroke:url(#SVGID_71_);stroke-miterlimit:10;" d="M-404.011,389.351c2.583,1.576,5.059,3.33,7.403,5.243"/>
<linearGradient id="SVGID_72_" gradientUnits="userSpaceOnUse" x1="-416.4397" y1="389.7806" x2="-405.752" y2="389.7806">
	<stop  offset="0" style="stop-color:#D7CBB5;stop-opacity:0"/>
	<stop  offset="1" style="stop-color:#172211;stop-opacity:0.5"/>
</linearGradient>
<path style="fill:none;stroke:url(#SVGID_72_);stroke-miterlimit:10;" d="M-416.02,383.012c1.49,2.295,2.98,4.59,4.47,6.885
	c1.638,2.522,3.872,3.665,5.349,6.705"/>
<linearGradient id="SVGID_73_" gradientUnits="userSpaceOnUse" x1="-430.8596" y1="373.4763" x2="-427.2184" y2="373.4763">
	<stop  offset="0" style="stop-color:#D7CBB5;stop-opacity:0"/>
	<stop  offset="1" style="stop-color:#172211;stop-opacity:0.5"/>
</linearGradient>
<path style="fill:none;stroke:url(#SVGID_73_);stroke-miterlimit:10;" d="M-427.271,369.281c-0.792-0.085-1.227,0.881-1.411,1.657
	c-0.564,2.374-1.127,4.749-1.691,7.123"/>
<linearGradient id="SVGID_74_" gradientUnits="userSpaceOnUse" x1="-428.5359" y1="361.911" x2="-423.9713" y2="361.911">
	<stop  offset="0" style="stop-color:#D7CBB5;stop-opacity:0"/>
	<stop  offset="1" style="stop-color:#172211;stop-opacity:0.5"/>
</linearGradient>
<path style="fill:none;stroke:url(#SVGID_74_);stroke-miterlimit:10;" d="M-428.167,359.515c1.385,1.515,2.65,3.141,3.778,4.855"/>
<linearGradient id="SVGID_75_" gradientUnits="userSpaceOnUse" x1="-430.3005" y1="351.5289" x2="-422.1122" y2="351.5289">
	<stop  offset="0" style="stop-color:#D7CBB5;stop-opacity:0"/>
	<stop  offset="1" style="stop-color:#172211;stop-opacity:0.5"/>
</linearGradient>
<path style="fill:none;stroke:url(#SVGID_75_);stroke-miterlimit:10;" d="M-429.985,348.982c2.371,1.929,4.934,3.62,7.64,5.04"/>
<linearGradient id="SVGID_76_" gradientUnits="userSpaceOnUse" x1="-426.6341" y1="343.4393" x2="-419.281" y2="343.4393">
	<stop  offset="0" style="stop-color:#D7CBB5;stop-opacity:0"/>
	<stop  offset="1" style="stop-color:#172211;stop-opacity:0.5"/>
</linearGradient>
<path style="fill:none;stroke:url(#SVGID_76_);stroke-miterlimit:10;" d="M-426.306,345.032c1.943-1.692,4.408-2.776,6.969-3.065"/>
<linearGradient id="SVGID_77_" gradientUnits="userSpaceOnUse" x1="-426.0202" y1="337.5" x2="-419.6465" y2="337.5">
	<stop  offset="0" style="stop-color:#D7CBB5;stop-opacity:0"/>
	<stop  offset="1" style="stop-color:#172211;stop-opacity:0.5"/>
</linearGradient>
<path style="fill:none;stroke:url(#SVGID_77_);stroke-miterlimit:10;" d="M-425.667,340.333c1.889-1.889,3.778-3.778,5.667-5.667"/>
<linearGradient id="SVGID_78_" gradientUnits="userSpaceOnUse" x1="-430.6563" y1="316.2473" x2="-426.4044" y2="316.2473">
	<stop  offset="0" style="stop-color:#D7CBB5;stop-opacity:0"/>
	<stop  offset="1" style="stop-color:#172211;stop-opacity:0.5"/>
</linearGradient>
<path style="fill:none;stroke:url(#SVGID_78_);stroke-miterlimit:10;" d="M-430.165,320.744c0.307-1.588,1.393-2.89,2.227-4.275
	s1.435-3.144,0.707-4.588"/>
<linearGradient id="SVGID_79_" gradientUnits="userSpaceOnUse" x1="-432.8362" y1="309.0379" x2="-430.8179" y2="309.0379">
	<stop  offset="0" style="stop-color:#D7CBB5;stop-opacity:0"/>
	<stop  offset="1" style="stop-color:#172211;stop-opacity:0.5"/>
</linearGradient>
<path style="fill:none;stroke:url(#SVGID_79_);stroke-miterlimit:10;" d="M-432.345,313.664c0.585-3.077,0.929-6.2,1.027-9.331"/>
<linearGradient id="SVGID_80_" gradientUnits="userSpaceOnUse" x1="-408.4471" y1="299.7807" x2="-403.3364" y2="299.7807">
	<stop  offset="0" style="stop-color:#D7CBB5;stop-opacity:0"/>
	<stop  offset="1" style="stop-color:#172211;stop-opacity:0.5"/>
</linearGradient>
<path style="fill:none;stroke:url(#SVGID_80_);stroke-miterlimit:10;" d="M-407.969,305.343c1.161-3.771,2.557-7.469,4.177-11.066"
	/>
<linearGradient id="SVGID_81_" gradientUnits="userSpaceOnUse" x1="-397.7104" y1="295.1252" x2="-391.3698" y2="295.1252">
	<stop  offset="0" style="stop-color:#D7CBB5;stop-opacity:0"/>
	<stop  offset="1" style="stop-color:#172211;stop-opacity:0.5"/>
</linearGradient>
<path style="fill:none;stroke:url(#SVGID_81_);stroke-miterlimit:10;" d="M-397.321,298.343c1.776-2.209,3.64-4.347,5.588-6.406"/>
<linearGradient id="SVGID_82_" gradientUnits="userSpaceOnUse" x1="-387.2451" y1="296.9701" x2="-378.9447" y2="296.9701">
	<stop  offset="0" style="stop-color:#D7CBB5;stop-opacity:0"/>
	<stop  offset="1" style="stop-color:#172211;stop-opacity:0.5"/>
</linearGradient>
<path style="fill:none;stroke:url(#SVGID_82_);stroke-miterlimit:10;" d="M-386.798,300.101c1.508-3.023,4.444-5.295,7.749-5.996"/>
<linearGradient id="SVGID_83_" gradientUnits="userSpaceOnUse" x1="-379.6371" y1="296.83" x2="-372.2279" y2="296.83">
	<stop  offset="0" style="stop-color:#D7CBB5;stop-opacity:0"/>
	<stop  offset="1" style="stop-color:#172211;stop-opacity:0.5"/>
</linearGradient>
<path style="fill:none;stroke:url(#SVGID_83_);stroke-miterlimit:10;" d="M-379.121,298.716c-0.176-1.442,1.083-2.744,2.482-3.138
	c1.399-0.394,2.888-0.11,4.313,0.176"/>
<linearGradient id="SVGID_84_" gradientUnits="userSpaceOnUse" x1="-373.9109" y1="298.9043" x2="-365.902" y2="298.9043">
	<stop  offset="0" style="stop-color:#D7CBB5;stop-opacity:0"/>
	<stop  offset="1" style="stop-color:#172211;stop-opacity:0.5"/>
</linearGradient>
<path style="fill:none;stroke:url(#SVGID_84_);stroke-miterlimit:10;" d="M-373.645,300.701c2.371-1.486,4.927-2.678,7.589-3.54"/>
<linearGradient id="SVGID_85_" gradientUnits="userSpaceOnUse" x1="-364.8636" y1="305.8333" x2="-357.4697" y2="305.8333">
	<stop  offset="0" style="stop-color:#D7CBB5;stop-opacity:0"/>
	<stop  offset="1" style="stop-color:#172211;stop-opacity:0.5"/>
</linearGradient>
<path style="fill:none;stroke:url(#SVGID_85_);stroke-miterlimit:10;" d="M-364.667,307.333c2.333-1,4.667-2,7-3"/>
<linearGradient id="SVGID_86_" gradientUnits="userSpaceOnUse" x1="-360.5766" y1="308.337" x2="-355.657" y2="308.337">
	<stop  offset="0" style="stop-color:#D7CBB5;stop-opacity:0"/>
	<stop  offset="1" style="stop-color:#172211;stop-opacity:0.5"/>
</linearGradient>
<path style="fill:none;stroke:url(#SVGID_86_);stroke-miterlimit:10;" d="M-360.166,309.116c0.914-1.31,2.878-1.744,4.258-0.941"/>
<linearGradient id="SVGID_87_" gradientUnits="userSpaceOnUse" x1="-365.1013" y1="314.3333" x2="-355.232" y2="314.3333">
	<stop  offset="0" style="stop-color:#D7CBB5;stop-opacity:0"/>
	<stop  offset="1" style="stop-color:#172211;stop-opacity:0.5"/>
</linearGradient>
<path style="fill:none;stroke:url(#SVGID_87_);stroke-miterlimit:10;" d="M-365,315.333c3.222-0.667,6.444-1.333,9.667-2"/>
<linearGradient id="SVGID_88_" gradientUnits="userSpaceOnUse" x1="-373.9404" y1="319.8989" x2="-366.6077" y2="319.8989">
	<stop  offset="0" style="stop-color:#D7CBB5;stop-opacity:0"/>
	<stop  offset="1" style="stop-color:#172211;stop-opacity:0.5"/>
</linearGradient>
<path style="fill:none;stroke:url(#SVGID_88_);stroke-miterlimit:10;" d="M-373.554,321.426c1.644-1.999,4.321-3.098,6.895-2.832"/>
<linearGradient id="SVGID_89_" gradientUnits="userSpaceOnUse" x1="-367.0312" y1="331.3936" x2="-357.2104" y2="331.3936">
	<stop  offset="0" style="stop-color:#D7CBB5;stop-opacity:0"/>
	<stop  offset="1" style="stop-color:#172211;stop-opacity:0.5"/>
</linearGradient>
<path style="fill:none;stroke:url(#SVGID_89_);stroke-miterlimit:10;" d="M-366.985,330.161c3.337-0.309,6.775,0.64,9.479,2.618"/>
<linearGradient id="SVGID_90_" gradientUnits="userSpaceOnUse" x1="-367.006" y1="335.9431" x2="-358.5862" y2="335.9431">
	<stop  offset="0" style="stop-color:#D7CBB5;stop-opacity:0"/>
	<stop  offset="1" style="stop-color:#172211;stop-opacity:0.5"/>
</linearGradient>
<path style="fill:none;stroke:url(#SVGID_90_);stroke-miterlimit:10;" d="M-367.001,335.347c1.968-0.018,3.937,0.053,5.899,0.214
	c0.919,0.075,2.125,0.504,2.009,1.418"/>
<linearGradient id="SVGID_91_" gradientUnits="userSpaceOnUse" x1="-367.6894" y1="344.9763" x2="-357.7639" y2="344.9763">
	<stop  offset="0" style="stop-color:#D7CBB5;stop-opacity:0"/>
	<stop  offset="1" style="stop-color:#172211;stop-opacity:0.5"/>
</linearGradient>
<path style="fill:none;stroke:url(#SVGID_91_);stroke-miterlimit:10;" d="M-367.662,344.085c3.316-0.182,6.675,0.463,9.688,1.859"/>
<linearGradient id="SVGID_92_" gradientUnits="userSpaceOnUse" x1="-364.4492" y1="352.6527" x2="-359.2813" y2="352.6527">
	<stop  offset="0" style="stop-color:#D7CBB5;stop-opacity:0"/>
	<stop  offset="1" style="stop-color:#172211;stop-opacity:0.5"/>
</linearGradient>
<path style="fill:none;stroke:url(#SVGID_92_);stroke-miterlimit:10;" d="M-364.305,352.427c1.585-0.477,3.383-0.185,4.736,0.768"/>
<linearGradient id="SVGID_93_" gradientUnits="userSpaceOnUse" x1="-364.5155" y1="360.7327" x2="-359.3308" y2="360.7327">
	<stop  offset="0" style="stop-color:#D7CBB5;stop-opacity:0"/>
	<stop  offset="1" style="stop-color:#172211;stop-opacity:0.5"/>
</linearGradient>
<path style="fill:none;stroke:url(#SVGID_93_);stroke-miterlimit:10;" d="M-364.172,358.163c1.661,1.572,3.148,3.327,4.426,5.224"/>
<linearGradient id="SVGID_94_" gradientUnits="userSpaceOnUse" x1="-362.345" y1="369.4953" x2="-355.8512" y2="369.4953">
	<stop  offset="0" style="stop-color:#D7CBB5;stop-opacity:0"/>
	<stop  offset="1" style="stop-color:#172211;stop-opacity:0.5"/>
</linearGradient>
<path style="fill:none;stroke:url(#SVGID_94_);stroke-miterlimit:10;" d="M-362.33,368.548c2.197,0.067,4.371,0.76,6.202,1.978"/>
<linearGradient id="SVGID_95_" gradientUnits="userSpaceOnUse" x1="-364.4677" y1="378.5716" x2="-359.9498" y2="378.5716">
	<stop  offset="0" style="stop-color:#D7CBB5;stop-opacity:0"/>
	<stop  offset="1" style="stop-color:#172211;stop-opacity:0.5"/>
</linearGradient>
<path style="fill:none;stroke:url(#SVGID_95_);stroke-miterlimit:10;" d="M-364.325,377.306c1.562,0.465,2.973,1.422,3.983,2.702"/>
<linearGradient id="SVGID_96_" gradientUnits="userSpaceOnUse" x1="-366.4273" y1="382.2375" x2="-358.2708" y2="382.2375">
	<stop  offset="0" style="stop-color:#D7CBB5;stop-opacity:0"/>
	<stop  offset="1" style="stop-color:#172211;stop-opacity:0.5"/>
</linearGradient>
<path style="fill:none;stroke:url(#SVGID_96_);stroke-miterlimit:10;" d="M-366.31,381.905c2.607,0.627,5.321,0.804,7.987,0.522"/>
<linearGradient id="SVGID_97_" gradientUnits="userSpaceOnUse" x1="-370.5284" y1="387.7082" x2="-363.6104" y2="387.7082">
	<stop  offset="0" style="stop-color:#D7CBB5;stop-opacity:0"/>
	<stop  offset="1" style="stop-color:#172211;stop-opacity:0.5"/>
</linearGradient>
<path style="fill:none;stroke:url(#SVGID_97_);stroke-miterlimit:10;" d="M-370.291,386.588c2.052,1.107,4.301,1.851,6.609,2.185"/>
<linearGradient id="SVGID_98_" gradientUnits="userSpaceOnUse" x1="-374.1474" y1="393.9179" x2="-369.5858" y2="393.9179">
	<stop  offset="0" style="stop-color:#D7CBB5;stop-opacity:0"/>
	<stop  offset="1" style="stop-color:#172211;stop-opacity:0.5"/>
</linearGradient>
<path style="fill:none;stroke:url(#SVGID_98_);stroke-miterlimit:10;" d="M-374.006,392.686c1.56,0.461,2.982,1.382,4.04,2.618"/>
<linearGradient id="SVGID_99_" gradientUnits="userSpaceOnUse" x1="-378.9085" y1="396.6252" x2="-372.9809" y2="396.6252">
	<stop  offset="0" style="stop-color:#D7CBB5;stop-opacity:0"/>
	<stop  offset="1" style="stop-color:#172211;stop-opacity:0.5"/>
</linearGradient>
<path style="fill:none;stroke:url(#SVGID_99_);stroke-miterlimit:10;" d="M-378.667,394.667c1.951,1.078,3.752,2.429,5.333,4"/>
<linearGradient id="SVGID_100_" gradientUnits="userSpaceOnUse" x1="-384.9561" y1="398.5139" x2="-377.4774" y2="398.5139">
	<stop  offset="0" style="stop-color:#D7CBB5;stop-opacity:0"/>
	<stop  offset="1" style="stop-color:#172211;stop-opacity:0.5"/>
</linearGradient>
<path style="fill:none;stroke:url(#SVGID_100_);stroke-miterlimit:10;" d="M-384.676,396.681c2.187,1.477,4.551,2.692,7.025,3.612"
	/>
<linearGradient id="SVGID_101_" gradientUnits="userSpaceOnUse" x1="-394.0916" y1="399.2831" x2="-386.993" y2="399.2831">
	<stop  offset="0" style="stop-color:#D7CBB5;stop-opacity:0"/>
	<stop  offset="1" style="stop-color:#172211;stop-opacity:0.5"/>
</linearGradient>
<path style="fill:none;stroke:url(#SVGID_101_);stroke-miterlimit:10;" d="M-393.638,396.987c1.168,2.524,3.858,4.267,6.638,4.303"
	/>
<linearGradient id="SVGID_102_" gradientUnits="userSpaceOnUse" x1="-399.7681" y1="401.9029" x2="-388.2596" y2="401.9029">
	<stop  offset="0" style="stop-color:#D7CBB5;stop-opacity:0"/>
	<stop  offset="1" style="stop-color:#172211;stop-opacity:0.5"/>
</linearGradient>
<path style="fill:none;stroke:url(#SVGID_102_);stroke-miterlimit:10;" d="M-399.268,398.667c-0.037,5.629,6.566,5.354,10.937,5.98"
	/>
<linearGradient id="SVGID_103_" gradientUnits="userSpaceOnUse" x1="-385.2568" y1="402.3845" x2="-374.8156" y2="402.3845">
	<stop  offset="0" style="stop-color:#D7CBB5;stop-opacity:0"/>
	<stop  offset="1" style="stop-color:#172211;stop-opacity:0.5"/>
</linearGradient>
<path style="fill:none;stroke:url(#SVGID_103_);stroke-miterlimit:10;" d="M-385.034,403.693c1.655,0.825,3.622,0.026,5.291-0.769
	c1.571-0.748,3.141-1.496,4.712-2.244"/>
<linearGradient id="SVGID_104_" gradientUnits="userSpaceOnUse" x1="-411.8611" y1="393.9547" x2="-408.2436" y2="393.9547">
	<stop  offset="0" style="stop-color:#D7CBB5;stop-opacity:0"/>
	<stop  offset="1" style="stop-color:#172211;stop-opacity:0.5"/>
</linearGradient>
<path style="fill:none;stroke:url(#SVGID_104_);stroke-miterlimit:10;" d="M-411.362,390.002c0.198,2.732,1.144,5.407,2.708,7.656"
	/>
<linearGradient id="SVGID_105_" gradientUnits="userSpaceOnUse" x1="-419.8284" y1="391.4357" x2="-414.6026" y2="391.4357">
	<stop  offset="0" style="stop-color:#D7CBB5;stop-opacity:0"/>
	<stop  offset="1" style="stop-color:#172211;stop-opacity:0.5"/>
</linearGradient>
<path style="fill:none;stroke:url(#SVGID_105_);stroke-miterlimit:10;" d="M-419.339,386.668c0.706,3.388,2.205,6.608,4.343,9.329"
	/>
<linearGradient id="SVGID_106_" gradientUnits="userSpaceOnUse" x1="-432.3191" y1="389.7397" x2="-423.6932" y2="389.7397">
	<stop  offset="0" style="stop-color:#D7CBB5;stop-opacity:0"/>
	<stop  offset="1" style="stop-color:#172211;stop-opacity:0.5"/>
</linearGradient>
<path style="fill:none;stroke:url(#SVGID_106_);stroke-miterlimit:10;" d="M-431.848,381.612c1.157,3.238,4.653,4.964,5.799,7.683
	c1.157,2.743-0.177,5.581,1.955,8.441"/>
<linearGradient id="SVGID_107_" gradientUnits="userSpaceOnUse" x1="-390.0157" y1="290.5983" x2="-383.1728" y2="290.5983">
	<stop  offset="0" style="stop-color:#D7CBB5;stop-opacity:0"/>
	<stop  offset="1" style="stop-color:#172211;stop-opacity:0.5"/>
</linearGradient>
<path style="fill:none;stroke:url(#SVGID_107_);stroke-miterlimit:10;" d="M-389.66,292.673c1.772-1.79,3.948-3.178,6.318-4.031"/>
<linearGradient id="SVGID_108_" gradientUnits="userSpaceOnUse" x1="-401.8847" y1="290.7299" x2="-399.2128" y2="290.7299">
	<stop  offset="0" style="stop-color:#D7CBB5;stop-opacity:0"/>
	<stop  offset="1" style="stop-color:#172211;stop-opacity:0.5"/>
</linearGradient>
<path style="fill:none;stroke:url(#SVGID_108_);stroke-miterlimit:10;" d="M-401.352,294.335c-0.184-2.43,0.426-4.915,1.715-6.983"
	/>
<linearGradient id="SVGID_109_" gradientUnits="userSpaceOnUse" x1="-412.8918" y1="288.939" x2="-407.9278" y2="288.939">
	<stop  offset="0" style="stop-color:#D7CBB5;stop-opacity:0"/>
	<stop  offset="1" style="stop-color:#172211;stop-opacity:0.5"/>
</linearGradient>
<path style="fill:none;stroke:url(#SVGID_109_);stroke-miterlimit:10;" d="M-412.463,291.923c1.236-2.067,2.624-4.043,4.148-5.908"
	/>
<linearGradient id="SVGID_110_" gradientUnits="userSpaceOnUse" x1="-407.6069" y1="288.6684" x2="-400.3485" y2="288.6684">
	<stop  offset="0" style="stop-color:#D7CBB5;stop-opacity:0"/>
	<stop  offset="1" style="stop-color:#172211;stop-opacity:0.5"/>
</linearGradient>
<path style="fill:none;stroke:url(#SVGID_110_);stroke-miterlimit:10;" d="M-407.359,290.955c2.357-1.345,4.599-2.894,6.692-4.622"
	/>
<linearGradient id="SVGID_111_" gradientUnits="userSpaceOnUse" x1="-422.1929" y1="296.0894" x2="-419.601" y2="296.0894">
	<stop  offset="0" style="stop-color:#D7CBB5;stop-opacity:0"/>
	<stop  offset="1" style="stop-color:#172211;stop-opacity:0.5"/>
</linearGradient>
<path style="fill:none;stroke:url(#SVGID_111_);stroke-miterlimit:10;" d="M-421.284,299.648c-0.86-2.325-0.337-5.105,1.309-6.959"
	/>
<linearGradient id="SVGID_112_" gradientUnits="userSpaceOnUse" x1="-430.5424" y1="296.792" x2="-425.0354" y2="296.792">
	<stop  offset="0" style="stop-color:#D7CBB5;stop-opacity:0"/>
	<stop  offset="1" style="stop-color:#172211;stop-opacity:0.5"/>
</linearGradient>
<path style="fill:none;stroke:url(#SVGID_112_);stroke-miterlimit:10;" d="M-428.322,300.321c-0.739-0.791-1.304-1.743-1.645-2.77
	c1.53-1.421,3.061-2.842,4.591-4.263"/>
<g>
	<defs>
		<path id="XMLID_1_" d="M28.333,162.833c24.886-17.479,57.752-31.338,92.689-44.256c20.854-8.851,42.91-13.466,65.748-15.323
			c15.015-14.671,31.594-27.616,50.563-37.92c17.021-15.273,36.31-28.327,56.5-40.5c2.812-0.937,4.985-0.792,5,3
			c-13.949,16.266-30.631,32.99-52,50.5c-14.006,14.204-32.255,26.704-53.5,38l-71,18.5c-24.031,15.906-47.203,29.53-69,39.5
			C35.479,178.846,28.211,174.078,28.333,162.833z"/>
	</defs>
	<use xlink:href="#XMLID_1_"  style="overflow:visible;fill:#28241B;"/>
	<clipPath id="XMLID_16_">
		<use xlink:href="#XMLID_1_"  style="overflow:visible;"/>
	</clipPath>
	<path style="clip-path:url(#XMLID_16_);fill:#FFF93E;" d="M272.134,30.822c-1.243-2.396-4.595-3.108-6.841-1.794
		c-1.361,0.796-2.13,2.095-2.343,3.503c-0.004,0.004-0.007,0.007-0.011,0.01c-2.473,2.632-4.524,5.829-3.628,9.606
		c0.785,3.307,3.774,5.958,7.251,5.837C275.149,47.688,274.975,36.301,272.134,30.822z"/>
	<path style="clip-path:url(#XMLID_16_);fill:#FFF93E;" d="M215.607,103.833c-4.023-8.027-8.186-15.979-12.49-23.86
		c-2.646-4.846-11.273-1.504-9.139,3.853c0.67,1.682,1.357,3.357,2.054,5.027c-0.392-0.031-0.787,0.001-1.178,0.063
		c-2.539-3.467-9.176-0.826-8.929,3.417c-3.161,0.601-5.761,3.818-3.409,7.151c1.28,1.814,2.391,3.664,3.362,5.564
		c0.959,3.923,2.387,7.707,3.983,11.541c1.57,3.771,5.666,4.256,8.028,2.387c2.095,1.187,4.973,0.017,6.4-2.187
		c0.233-0.158,0.452-0.333,0.656-0.525c1.592,0.336,3.341-0.317,4.573-1.54c3.197,0.695,6.853-2.366,6.029-6.132
		C216.303,107.261,216.483,105.581,215.607,103.833z"/>
	<path style="clip-path:url(#XMLID_16_);fill:#FFF93E;" d="M142.234,130.488c-1.46-7.355-2.92-14.711-4.38-22.066
		c-0.929-4.682-7.845-4.502-9.487-0.804c-2.288-1.039-5.437-0.599-6.732,1.812c-0.797,1.484-1.07,2.742-1.287,4.4
		c-0.115,0.877-0.018,1.627,0.226,2.26c-0.541,7.841,0.03,15.597,1.583,23.367c0.785,3.927,5.08,4.4,7.724,2.524
		c1.447,0.081,2.987-0.459,4.134-1.485c2.971,0.64,6.652-1.124,6.33-4.746c-0.006-0.062-0.011-0.124-0.017-0.187
		C141.755,134.481,142.675,132.713,142.234,130.488z"/>
	<path style="clip-path:url(#XMLID_16_);fill:#FFF93E;" d="M82.899,170.418c-0.732-2.078-1.493-4.144-2.248-6.212
		c0.116-0.909-0.015-1.889-0.503-2.895l-2.488-5.126c-2.968-7.801-6.071-15.549-9.329-23.239c-2.36-5.571-10.156-1.357-8.949,4.06
		c-1.705,0.43-3.219,1.581-3.721,3.172c-1.536,0.608-2.712,1.849-2.8,3.576c-0.358,0.142-0.7,0.319-1.015,0.535
		c-2.634-2.299-6.34-0.874-7.597,1.963c-0.692,0.231-1.336,0.592-1.876,1.062c-0.517,0.223-1.01,0.528-1.451,0.906
		c-3.223-2.611-8.519-0.527-7.989,4.452c-3.084-0.429-6.389,2.416-5.706,6.25c1.011,5.672,2.655,11.109,4.967,16.389
		c1.983,4.529,3.957,8.745,8.894,10.404c1.754,0.589,4.099-0.216,5.338-1.733c0.21,0.344,0.415,0.69,0.631,1.029
		c1.343,2.107,4.583,3.434,6.841,1.794c2.396-1.74,3.304-3.918,3.448-6.287c1.138-0.604,2.11-1.619,2.623-2.864
		c0.816-0.163,1.594-0.491,2.251-0.958c0.159-0.022,0.317-0.051,0.474-0.089c0.087,0.149,0.178,0.296,0.264,0.446
		c3.024,5.233,10.195,1.362,9.061-3.8c0.419-0.025,0.827-0.103,1.223-0.211c0.004,0.011,0.008,0.022,0.012,0.033
		C75.381,179.106,85.046,176.51,82.899,170.418z"/>
	<path style="opacity:0.44;clip-path:url(#XMLID_16_);fill:#FFFFFF;" d="M302.266,21.956c-0.534,0.112-1.063,0.25-1.596,0.369
		c-1.671-0.841-3.739-0.767-5.433,1.003c-0.136,0.142-0.271,0.285-0.407,0.427c-12.132,3.237-23.844,8.051-34.687,14.395
		c-6.469,3.785-12.605,8.118-18.405,12.864c-5.667,4.638-10.352,10.418-16.031,14.973c-5.792,4.646-14.023,5.234-20.423,9.022
		c-6.467,3.827-10.94,9.169-15.555,14.96c-8.565,10.748-20.316,12.13-33.268,13.127c-13.26,1.021-27.268,2.167-37.12,12.179
		c-1.22,1.24-1.59,2.66-1.399,3.984c-0.47-0.223-1.003-0.377-1.598-0.441c-0.013-3.078-2.333-6.043-6.03-4.693
		c-4.091,1.494-8.152,3.053-12.192,4.68c-2.094,0.844-3.115,2.61-3.298,4.428c-5.288,2.675-10.786,4.925-16.507,6.689
		c-2.752,0.848-5.53,1.633-8.265,2.539c-3.915,0.604-7.846,1.045-11.811,1.551c-5.568,0.711-10.855,2.187-14.695,6.527
		c-1.835,2.073-1.941,4.998,0,7.071c0.663,0.708,1.385,1.3,2.148,1.792c-1.748,0.733-3.492,1.476-5.221,2.256
		c-7.272,3.279-14.561,6.898-18.669,14.069c-3.204,5.593,5.433,10.636,8.635,5.047c3.881-6.775,13.13-9.769,20.006-12.608
		c7.722-3.188,15.616-5.938,23.467-8.787c15.452-5.607,30.883-11.627,44.313-21.293c1.71-1.231,2.432-3.219,2.249-5.043
		c1.744,1.104,4.059,1.212,5.938-0.697c8.303-8.438,20.997-8.524,32.049-9.404c11.413-0.909,23.464-2.262,32.604-9.849
		c5.419-4.498,8.736-10.897,13.963-15.59c5.783-5.193,12.639-6.674,19.626-9.491c6.735-2.715,11.123-7.982,16.23-12.892
		c5.379-5.173,11.187-9.866,17.393-14.011c6.85-4.576,14.072-8.456,21.584-11.648c-10.395,10.93-20.793,21.86-31.344,32.634
		c-6.784,6.927-13.845,13.739-22.037,18.995c-3.961,2.542-8.147,4.759-12.597,6.311c-4.693,1.636-9.626,2.68-13.925,5.281
		c-4.043,2.447-7.258,5.99-11.129,8.668c-3.787,2.621-7.956,4.647-12.293,6.177c-8.776,3.097-18.014,4.587-27.119,6.358
		c-8.792,1.71-17.446,3.749-25.702,7.29c-8.005,3.433-15.437,7.964-22.709,12.726c-16.057,10.514-32.541,23.453-52.554,24.061
		c-2.877,0.088-4.466,2.144-4.768,4.37c-6.127,1.396-12.287,2.633-18.352,3.972c-6.281,1.387-3.623,11.03,2.658,9.643
		c15.859-3.502,32.016-6.494,47.002-12.963c15.575-6.724,29.601-17.291,43.797-26.459c1.223-0.789,1.905-1.846,2.174-2.967
		c7.922-4.161,16.214-6.882,24.968-8.781c13.926-3.021,28.348-4.825,41.056-10.98c0.012,0.019,0.017,0.041,0.029,0.06
		c1.546,2.398,4.333,3.048,6.841,1.794c1.333-0.667,2.667-1.333,4-2c2.344-1.172,3.191-4.674,1.794-6.841
		c-0.188-0.291-0.395-0.554-0.616-0.793c3.727-3.03,7.051-5.648,11.821-7.189c4.914-1.588,9.726-3.135,14.351-5.476
		c8.886-4.499,16.723-10.952,23.912-17.78c17.712-16.823,34.147-35.157,50.996-52.862c1.595-0.395,3.197-0.771,4.811-1.11
		C311.219,30.277,308.555,20.635,302.266,21.956z"/>
	<use xlink:href="#XMLID_1_"  style="overflow:visible;fill:none;stroke:#000000;stroke-width:3;stroke-miterlimit:10;"/>
</g>
</svg>
